<svg width="46" height="46" viewBox="0 0 46 46" fill="none" xmlns="http://www.w3.org/2000/svg">
<path opacity="0.927" fill-rule="evenodd" clip-rule="evenodd" d="M22.139 0.0381251C23.2143 -0.0851229 24.2347 0.0904505 25.2003 0.564826C31.5299 4.61084 37.8757 8.63293 44.2377 12.6311C45.7748 13.8957 46.301 15.5078 45.8161 17.4671C45.5237 18.3237 45.0295 19.042 44.3333 19.6218C43.6609 20.1098 42.9434 20.5088 42.1809 20.8189C41.449 20.6164 41.2418 20.1695 41.559 19.4782C42.1322 19.0315 42.738 18.6326 43.3767 18.2811C44.2168 17.5207 44.5197 16.579 44.2855 15.4561C44.0714 14.731 43.6409 14.1724 42.994 13.7802C36.8234 9.90974 30.6689 6.01538 24.5306 2.09705C23.5102 1.52246 22.4898 1.52246 21.4694 2.09705C15.1873 6.08721 8.90536 10.0773 2.62331 14.0675C1.67887 14.9217 1.40783 15.9591 1.81016 17.1798C1.99952 17.6066 2.27057 17.9737 2.62331 18.2811C9.03288 22.3351 15.4424 26.3892 21.852 30.4431C22.6173 30.7623 23.3827 30.7623 24.148 30.4431C26.9223 28.6875 29.6966 26.9318 32.4709 25.1761C33.6322 25.1261 33.9192 25.6049 33.3318 26.6126C30.5575 28.3682 27.7833 30.1239 25.009 31.8796C23.4618 32.5295 21.963 32.4338 20.5127 31.5923C14.2307 27.6021 7.94868 23.612 1.66666 19.6218C0.0283825 18.1533 -0.402111 16.3817 0.375178 14.3069C0.735033 13.6598 1.19741 13.1012 1.76232 12.6311C8.12425 8.63293 14.4701 4.61084 20.7997 0.564826C21.2454 0.358177 21.6918 0.182614 22.139 0.0381251Z" fill="white"/>
<path opacity="0.927" fill-rule="evenodd" clip-rule="evenodd" d="M22.2346 13.7321C23.3265 13.6027 24.347 13.8102 25.2959 14.3546C31.6578 18.3527 38.0037 22.3748 44.3333 26.4208C45.9715 27.8893 46.402 29.661 45.6247 31.7357C45.2649 32.3829 44.8025 32.9414 44.2376 33.4115C37.828 37.4655 31.4185 41.5196 25.0089 45.5735C23.5912 46.1722 22.1881 46.1402 20.7996 45.4778C14.47 41.4318 8.12418 37.4097 1.76225 33.4115C0.225106 32.1469 -0.301052 30.5348 0.183779 28.5755C0.621352 27.3712 1.40261 26.4615 2.52758 25.8462C3.40241 25.6375 3.80101 25.9727 3.72339 26.8517C3.64834 27.0228 3.53673 27.1664 3.38856 27.2827C1.62684 28.2637 1.19635 29.6522 2.09708 31.4484C2.30436 31.6559 2.51163 31.8633 2.71891 32.0709C8.969 36.0291 15.2192 39.9874 21.4693 43.9456C22.4897 44.5201 23.5101 44.5201 24.5306 43.9456C30.6688 40.0272 36.8234 36.1329 42.9939 32.2624C44.3813 31.2874 44.7161 30.0266 43.9984 28.4797C43.8269 28.2121 43.6196 27.9726 43.3766 27.7615C36.967 23.7075 30.5575 19.6535 24.1479 15.5995C23.3826 15.2803 22.6173 15.2803 21.8519 15.5995C19.5717 17.012 17.3077 18.4485 15.0597 19.9089C14.2832 20.3746 13.773 20.1831 13.5291 19.3343C13.5573 19.0544 13.6849 18.8308 13.9117 18.6639C16.1282 17.2833 18.3285 15.8787 20.5126 14.4503C21.0646 14.1252 21.6386 13.8858 22.2346 13.7321Z" fill="white"/>
</svg>
