<svg width="64" height="49" viewBox="0 0 64 49" fill="none" xmlns="http://www.w3.org/2000/svg">
<path d="M54.1789 4.06187C50.0998 2.18189 45.7255 0.796731 41.1519 0.00332892C41.0686 -0.0119892 40.9854 0.026306 40.9425 0.102771C40.3799 1.10786 39.7568 2.41894 39.3204 3.44952C34.4013 2.70973 29.5073 2.70973 24.689 3.44952C24.2525 2.39609 23.6067 1.10786 23.0416 0.102771C22.9987 0.0288172 22.9155 -0.009478 22.8322 0.00332892C18.2612 0.794094 13.887 2.17925 9.80523 4.06187C9.76986 4.07719 9.73961 4.10268 9.71948 4.13582C1.42247 16.5868 -0.850532 28.7318 0.26447 40.7261C0.269469 40.7847 0.302345 40.8409 0.34772 40.8766C5.82185 44.9147 11.1246 47.3661 16.3287 48.9911C16.412 49.0166 16.5002 48.9861 16.5532 48.9171C17.7842 47.2285 18.8816 45.448 19.8225 43.5755C19.878 43.4659 19.825 43.3357 19.7115 43.2924C17.9709 42.6292 16.3135 41.8205 14.7191 40.9023C14.593 40.8283 14.5829 40.6471 14.699 40.5604C15.0345 40.3079 15.3701 40.0451 15.6905 39.7798C15.7485 39.7313 15.8292 39.7211 15.8974 39.7516C26.3714 44.5551 37.7108 44.5551 48.0612 39.7516C48.1293 39.7185 48.21 39.7288 48.2705 39.7771C48.591 40.0424 48.9265 40.3077 49.2645 40.5602C49.3805 40.647 49.3729 40.8282 49.2469 40.9021C47.6525 41.8383 45.9952 42.6291 44.252 43.2897C44.1385 43.3331 44.088 43.4658 44.1437 43.5754C45.1048 45.4452 46.2022 47.2257 47.4104 48.9145C47.4609 48.9859 47.5517 49.0166 47.6349 48.991C52.8643 47.3661 58.167 44.9146 63.6412 40.8765C63.6892 40.8409 63.7194 40.7872 63.7244 40.7286C65.0589 26.8618 61.4893 14.8164 54.2619 4.13833C54.2444 4.10268 54.2142 4.07719 54.1789 4.06187ZM21.3869 33.4228C18.2335 33.4228 15.6351 30.5148 15.6351 26.9435C15.6351 23.3722 18.183 20.4642 21.3869 20.4642C24.6157 20.4642 27.189 23.3977 27.1385 26.9435C27.1385 30.5148 24.5905 33.4228 21.3869 33.4228ZM42.6528 33.4228C39.4995 33.4228 36.9011 30.5148 36.9011 26.9435C36.9011 23.3722 39.449 20.4642 42.6528 20.4642C45.8818 20.4642 48.4549 23.3977 48.4045 26.9435C48.4045 30.5148 45.8819 33.4228 42.6528 33.4228Z" fill="#5865F2"/>
</svg>
