<svg width="42" height="46" viewBox="0 0 42 46" fill="none" xmlns="http://www.w3.org/2000/svg">
<path opacity="0.866" fill-rule="evenodd" clip-rule="evenodd" d="M20.0977 0C20.7266 0 21.3554 0 21.9844 0C24.6355 0.690443 26.0575 2.35768 26.25 5.00171C26.0235 7.9105 24.4102 9.604 21.4102 10.0822C21.3281 11.4465 21.3008 12.8118 21.3281 14.1781C22.0398 14.3401 22.7508 14.5108 23.4609 14.6901C24.2853 14.7007 25.1056 14.7532 25.9219 14.8476C26.523 15.0055 27.0426 15.2944 27.4805 15.714C28.5604 15.9797 29.6268 16.2817 30.6797 16.6199C31.1829 16.3335 31.6751 16.0316 32.1562 15.714C30.9019 12.9701 31.5308 10.7121 34.043 8.94007C36.5716 7.74342 38.8274 8.09789 40.8105 10.0034C41.4044 10.7051 41.8008 11.4928 42 12.3664C42 12.9966 42 13.6267 42 14.2568C41.2614 16.8028 39.5114 18.1682 36.75 18.3527C34.9995 18.3066 33.5914 17.624 32.5254 16.3048C32.0605 16.5936 31.5957 16.8824 31.1309 17.1712C31.1035 18.0902 31.0761 19.0091 31.0488 19.9281C30.8968 20.324 30.6097 20.5603 30.1875 20.637C30.2012 22.7113 30.1875 24.7856 30.1465 26.8596C30.0641 27.5427 29.6676 27.9497 28.957 28.0805C30.0234 28.8025 31.0898 29.5245 32.1562 30.2466C33.6519 28.6872 35.484 28.1489 37.6523 28.6318C40.6258 29.7341 41.8426 31.7951 41.3027 34.8151C40.4718 37.1644 38.7629 38.4246 36.1758 38.5959C33.4587 38.3889 31.7496 37.0236 31.0488 34.5C30.8017 33.1939 31.0341 31.973 31.7461 30.8373C30.5285 30.0296 29.3254 29.2025 28.1367 28.3562C25.8946 29.1701 23.6523 29.984 21.4102 30.7979C21.3281 32.5037 21.3008 34.2104 21.3281 35.9178C24.0192 36.257 25.6462 37.701 26.209 40.25C26.3771 43.2916 24.9416 45.2082 21.9023 46C21.3008 46 20.6992 46 20.0977 46C17.0587 45.2093 15.6232 43.2925 15.791 40.25C16.3516 37.7033 17.9786 36.2592 20.6719 35.9178C20.6856 34.2898 20.6719 32.6619 20.6309 31.0342C20.3512 31.1226 20.0641 31.1358 19.7695 31.0736C17.1255 30.4225 14.4869 29.753 11.8535 29.0651C11.1641 29.442 10.4943 29.849 9.84375 30.286C10.9946 32.714 10.5571 34.8407 8.53125 36.6661C6.62095 37.9262 4.62486 38.0575 2.54297 37.0599C1.15749 36.2156 0.309839 35.021 0 33.476C0 32.9509 0 32.4258 0 31.9007C0.661574 29.284 2.3979 27.8662 5.20898 27.6473C6.97695 27.6822 8.39885 28.3647 9.47461 29.6952C10.0008 29.3441 10.534 29.0028 11.0742 28.6712C10.9832 28.5228 10.9148 28.3652 10.8691 28.1986C10.8281 26.0721 10.8144 23.9454 10.8281 21.8185C10.3164 21.7342 10.0019 21.4454 9.88477 20.9521C9.83005 20.1382 9.83005 19.3242 9.88477 18.5103C9.95433 18.2584 10.0774 18.0352 10.2539 17.8408C10.7615 17.6104 11.281 17.4004 11.8125 17.2106C11.9218 17.1581 11.9218 17.1056 11.8125 17.0531C11.145 16.6352 10.4888 16.202 9.84375 15.7534C8.17963 17.4519 6.18354 17.9376 3.85547 17.2106C1.37224 16.0783 0.292159 14.2009 0.615234 11.5788C1.27947 8.98804 3.00213 7.62272 5.7832 7.48288C8.05393 7.56445 9.66722 8.58845 10.623 10.5548C11.2146 12.1473 11.0915 13.6833 10.2539 15.1627C11.0614 15.6947 11.8543 16.2461 12.6328 16.8168C12.7422 16.8693 12.8516 16.8693 12.9609 16.8168C15.5184 15.8713 18.0887 14.9655 20.6719 14.0993C20.6992 12.7592 20.6718 11.4202 20.5898 10.0822C17.5903 9.60447 15.977 7.91096 15.75 5.00171C15.9385 2.31242 17.3878 0.645182 20.0977 0ZM20.4258 0.630137C23.0605 0.574547 24.7421 1.75606 25.4707 4.17466C25.7567 6.92161 24.5127 8.64138 21.7383 9.3339C19.0503 9.50829 17.314 8.36617 16.5293 5.90753C16.2553 3.07165 17.5542 1.31252 20.4258 0.630137ZM5.16797 8.11301C7.86739 8.04126 9.57641 9.24907 10.2949 11.7363C10.4904 14.4098 9.24623 16.1033 6.5625 16.8168C3.82752 16.9953 2.09119 15.8268 1.35352 13.3116C1.10959 10.5499 2.38107 8.81703 5.16797 8.11301ZM36.2578 8.90068C38.4379 8.83161 40.0101 9.72427 40.9746 11.5788C41.8361 14.1921 41.0021 16.1219 38.4727 17.3682C36.2051 18.0514 34.3594 17.4869 32.9355 15.6747C31.7628 13.5612 32.0499 11.6576 33.7969 9.96404C34.5331 9.41338 35.3534 9.05893 36.2578 8.90068ZM20.6719 14.7295C21.2565 14.8334 21.8307 14.9778 22.3945 15.1627C19.3321 16.2654 16.2695 17.3682 13.207 18.4709C12.6055 18.4512 12.0313 18.3199 11.4844 18.0771C14.5632 16.9786 17.6256 15.8628 20.6719 14.7295ZM23.7891 15.3596C24.7114 15.2637 25.5864 15.4082 26.4141 15.7928C23.2628 16.9903 20.0908 18.1456 16.8984 19.2586C16.5075 19.4499 16.275 19.7519 16.2012 20.1644C16.1739 21.6872 16.1465 23.2101 16.1191 24.7329C16.0853 24.9481 16.0305 25.1581 15.9551 25.363C15.556 24.8871 15.2416 24.362 15.0117 23.7877C15.2074 23.5009 15.2074 23.2252 15.0117 22.9606C14.8312 22.8956 14.6808 22.935 14.5605 23.0788C14.3202 23.673 13.9785 24.1981 13.5352 24.6541C13.4697 24.5298 13.4287 24.3986 13.4121 24.2603C13.3574 22.6062 13.3574 20.9521 13.4121 19.2979C13.4428 19.2258 13.4838 19.1601 13.5352 19.101C16.9581 17.8439 20.376 16.5968 23.7891 15.3596ZM27.0703 16.3048C27.9129 16.535 28.7606 16.7581 29.6133 16.9743C26.5298 18.0926 23.4399 19.1953 20.3438 20.2825C20.207 20.3351 20.0703 20.3351 19.9336 20.2825C19.1953 20.0988 18.457 19.9149 17.7188 19.7312C20.8473 18.5946 23.9644 17.4524 27.0703 16.3048ZM30.2695 17.4075C30.3784 17.7581 30.4331 18.1388 30.4336 18.5497C30.4199 18.9303 30.4063 19.3111 30.3926 19.6918C30.3619 19.7639 30.3209 19.8296 30.2695 19.8887C26.9053 21.1405 23.5284 22.3614 20.1387 23.5514C19.07 23.2621 18.0036 22.9732 16.9395 22.6849C16.8984 21.8714 16.8848 21.0575 16.8984 20.2432C17.9791 20.4993 19.0591 20.7618 20.1387 21.0308C23.55 19.8911 26.927 18.6833 30.2695 17.4075ZM10.582 18.589C11.2596 18.7846 11.9432 18.9684 12.6328 19.1404C12.7285 19.9794 12.7421 20.8196 12.6738 21.661C12.0656 21.4751 11.4504 21.3045 10.8281 21.149C10.7598 21.0834 10.6914 21.0177 10.623 20.9521C10.582 20.1649 10.5684 19.3772 10.582 18.589ZM29.2852 20.9521C29.3945 21.9352 29.4491 22.946 29.4492 23.9846C29.4355 24.9954 29.4219 26.0063 29.4082 27.0171C29.3672 27.1615 29.2715 27.2534 29.1211 27.2928C26.1497 28.3796 23.1692 29.4429 20.1797 30.4829C17.4453 29.7871 14.7109 29.0913 11.9766 28.3955C11.8132 28.3503 11.6901 28.2584 11.6074 28.1199C11.5391 26.0977 11.5528 24.076 11.6484 22.0548C11.998 22.1418 12.3397 22.2469 12.6738 22.3699C12.6434 23.1103 12.6707 23.8455 12.7559 24.5753C12.8614 25.3888 13.2853 25.612 14.0273 25.2449C14.2051 25.0217 14.3828 24.7985 14.5605 24.5753C14.8069 25.1006 15.1486 25.5601 15.5859 25.9538C15.955 26.1402 16.2694 26.0745 16.5293 25.7568C16.813 24.9959 16.9498 24.2082 16.9395 23.3938C17.8751 23.6612 18.8185 23.9105 19.7695 24.1421C19.8375 25.8824 19.8785 27.6284 19.8926 29.3801C20.1515 29.6085 20.3702 29.5822 20.5488 29.3014C20.5625 27.5679 20.6035 25.835 20.6719 24.1027C23.5639 23.0812 26.435 22.031 29.2852 20.9521ZM5.08594 28.2774C7.56486 28.4395 9.10982 29.6735 9.7207 31.9795C9.95769 34.191 9.04165 35.7794 6.97266 36.7449C4.31679 37.5405 2.33436 36.766 1.02539 34.4212C0.228219 32.1493 0.843454 30.3245 2.87109 28.9469C3.57085 28.5696 4.30913 28.3464 5.08594 28.2774ZM35.4375 29.1438C37.4606 28.9535 39.0329 29.6624 40.1543 31.2705C41.2936 33.5731 40.8425 35.5292 38.8008 37.1387C36.5387 38.3642 34.5016 38.0885 32.6895 36.3116C31.6899 35.057 31.4165 33.6655 31.8691 32.137C32.5161 30.5305 33.7056 29.5327 35.4375 29.1438ZM20.2617 36.6267C22.9478 36.4902 24.684 37.6455 25.4707 40.0925C25.7791 42.6904 24.6442 44.4102 22.0664 45.2517C19.4015 45.6317 17.5832 44.6209 16.6113 42.2192C16.1226 40.1605 16.7651 38.5195 18.5391 37.2962C19.0848 36.9864 19.659 36.7632 20.2617 36.6267Z" fill="white"/>
</svg>
