<svg width="49" height="49" viewBox="0 0 49 49" fill="none" xmlns="http://www.w3.org/2000/svg">
<g clip-path="url(#clip0_4531_5843)">
<path d="M45.7132 12.8016C43.5223 9.0479 40.5506 6.07605 36.7972 3.88543C33.0432 1.6947 28.945 0.599609 24.4996 0.599609C20.0548 0.599609 15.9552 1.69503 12.202 3.88543C8.44829 6.07593 5.47666 9.0479 3.28582 12.8016C1.09531 16.5553 0 20.6543 0 25.0985C0 30.4371 1.55755 35.2377 4.67342 39.5015C7.78896 43.7656 11.8138 46.7163 16.7475 48.3537C17.3218 48.4603 17.747 48.3853 18.0234 48.1307C18.2999 47.8757 18.438 47.5564 18.438 47.174C18.438 47.1102 18.4326 46.5363 18.4219 45.4514C18.411 44.3666 18.4058 43.4203 18.4058 42.6128L17.6721 42.7397C17.2043 42.8254 16.6141 42.8617 15.9016 42.8514C15.1894 42.8415 14.4501 42.7669 13.6846 42.6281C12.9188 42.4905 12.2065 42.1715 11.5472 41.6718C10.8882 41.172 10.4204 40.5178 10.1438 39.7102L9.82483 38.9761C9.6122 38.4874 9.27745 37.9445 8.82013 37.3494C8.36281 36.7538 7.90035 36.35 7.43253 36.1373L7.20918 35.9775C7.06035 35.8712 6.92225 35.743 6.79454 35.5943C6.66694 35.4456 6.57141 35.2968 6.50761 35.1477C6.4437 34.9986 6.49666 34.8762 6.66705 34.7802C6.83744 34.6843 7.14538 34.6377 7.59219 34.6377L8.22996 34.733C8.65532 34.8182 9.18147 35.0729 9.80907 35.4985C10.4363 35.9237 10.952 36.4766 11.3561 37.1568C11.8455 38.029 12.4351 38.6936 13.1266 39.1509C13.8176 39.6082 14.5142 39.8365 15.2159 39.8365C15.9176 39.8365 16.5236 39.7833 17.0342 39.6775C17.5443 39.5711 18.0228 39.4112 18.4696 39.1987C18.661 37.7732 19.1822 36.6781 20.0326 35.9127C18.8205 35.7853 17.7308 35.5934 16.7628 35.3383C15.7955 35.0829 14.7958 34.6684 13.7645 34.0937C12.7327 33.5197 11.8767 32.8069 11.1963 31.9567C10.5159 31.1059 9.95745 29.9891 9.52181 28.607C9.08594 27.2245 8.86795 25.6296 8.86795 23.822C8.86795 21.2483 9.70818 19.0581 11.3883 17.2503C10.6013 15.3153 10.6756 13.1461 11.6114 10.743C12.2282 10.5514 13.1428 10.6952 14.3549 11.1735C15.5672 11.652 16.4548 12.062 17.0186 12.4019C17.5824 12.7416 18.0341 13.0296 18.3745 13.2631C20.3527 12.7104 22.3941 12.4339 24.4994 12.4339C26.6046 12.4339 28.6465 12.7104 30.6249 13.2631L31.8371 12.4978C32.666 11.9872 33.6449 11.5193 34.7714 11.0939C35.8985 10.6688 36.7604 10.5517 37.3562 10.7433C38.3128 13.1466 38.3981 15.3156 37.6108 17.2506C39.2908 19.0584 40.1314 21.2492 40.1314 23.8223C40.1314 25.6299 39.9126 27.2298 39.4774 28.623C39.0416 30.0164 38.4784 31.1322 37.7875 31.9726C37.0957 32.813 36.2343 33.5201 35.203 34.094C34.1715 34.6683 33.1715 35.0828 32.2041 35.3382C31.2363 35.5937 30.1465 35.7856 28.9345 35.9132C30.04 36.8699 30.5928 38.3799 30.5928 40.4427V47.1731C30.5928 47.5555 30.7258 47.8747 30.9919 48.1298C31.2577 48.3844 31.6775 48.4594 32.2518 48.3527C37.1862 46.7155 41.211 43.7647 44.3265 39.5006C47.4416 35.2368 48.9997 30.4362 48.9997 25.0977C48.9985 20.654 47.9027 16.5553 45.7132 12.8016Z" fill="#1A1A2E"/>
</g>
<defs>
<clipPath id="clip0_4531_5843">
<rect width="49" height="49" fill="white"/>
</clipPath>
</defs>
</svg>
