<svg width="55" height="49" viewBox="0 0 55 49" fill="none" xmlns="http://www.w3.org/2000/svg">
<path d="M4.18878 41.9311L6.56288 46.1097C7.05615 46.9894 7.76627 47.6811 8.60043 48.1848L17.1164 42.0576L17.1319 33.2609L8.63354 29.3755L0.121591 33.23C0.119903 34.2029 0.36554 35.1763 0.858922 36.056L4.18878 41.9311Z" fill="#0066DD"/>
<path d="M27.1525 15.7033L27.5967 4.24441L18.6736 0.748535C17.8377 1.24921 17.1251 1.93837 16.6287 2.81622L0.868828 30.4067C0.372492 31.2846 0.12327 32.2571 0.121582 33.23L17.1319 33.2608L27.1525 15.7033Z" fill="#00AD3C"/>
<path d="M27.1525 15.703L35.3267 11.2406L35.6839 0.77907C34.8497 0.275393 33.8913 0.0225918 32.9017 0.0207724L21.4585 8.79043e-06C20.4688 -0.0018107 19.5095 0.278925 18.6736 0.748246L27.1525 15.703Z" fill="#00831E"/>
<path d="M37.111 33.2974L17.1317 33.2612L8.60034 48.1851C9.43449 48.6888 10.3929 48.9416 11.3825 48.9434L42.8051 49.0003C43.7948 49.0021 44.754 48.7214 45.59 48.2521L45.6231 38.2278L37.111 33.2974Z" fill="#0084FF"/>
<path d="M45.5902 48.2518C46.4261 47.7512 47.1387 47.062 47.635 46.1842L48.6278 44.4598L53.3744 36.1513C53.8707 35.2734 54.1199 34.301 54.1216 33.328L44.2897 28.0781L37.1423 33.2973L45.5902 48.2518Z" fill="#FF4131"/>
<path d="M45.5528 16.6778L37.7215 2.85399C37.2282 1.97421 36.5181 1.28249 35.6838 0.778809L27.1523 15.7028L37.111 33.2967L54.0904 33.3275C54.0921 32.3546 53.8463 31.3812 53.3531 30.5014L45.5528 16.6778Z" fill="#FFBA00"/>
</svg>
