<svg width="49" height="49" viewBox="0 0 49 49" fill="none" xmlns="http://www.w3.org/2000/svg">
<g clip-path="url(#clip0_4529_445)">
<path d="M42.8683 18.6618C41.1739 17.3675 39.182 16.5187 37.0749 16.193H37.084V10.3821C38.654 9.64886 39.6603 8.07588 39.6679 6.34308V6.20728C39.6613 3.73766 37.6609 1.73718 35.1912 1.73057H35.0554C32.5857 1.73718 30.5853 3.73766 30.5787 6.20728V6.34308C30.5864 8.07588 31.5927 9.64886 33.1627 10.3821V16.2052C30.9514 16.5433 28.8686 17.4598 27.1254 18.8616L11.1444 6.41553C11.8711 3.69507 10.2546 0.900635 7.53418 0.173961C4.81372 -0.552713 2.01929 1.06362 1.29261 3.78407C0.565939 6.50453 2.18227 9.29897 4.90282 10.0256C6.20362 10.373 7.58892 10.192 8.7566 9.52167L24.4688 21.7534C21.5725 26.1231 21.6503 31.8214 24.665 36.1102L19.8834 40.8918C19.4996 40.7696 19.0999 40.7044 18.6971 40.6986C16.4047 40.6986 14.5464 42.5569 14.5464 44.8492C14.5464 47.1416 16.4047 49 18.6971 49C20.9895 49 22.8477 47.1416 22.8477 44.8492C22.8421 44.4465 22.777 44.0467 22.6545 43.6629L27.3848 38.9327C32.9825 43.2083 40.9863 42.1366 45.2621 36.5389C49.5377 30.9413 48.466 22.9374 42.8683 18.6618ZM35.1308 35.3405L35.1157 35.3374C31.5013 35.3291 28.578 32.3922 28.5864 28.7778C28.5947 25.1634 31.5315 22.2401 35.146 22.2484C38.7557 22.2567 41.677 25.1862 41.6754 28.7959C41.6753 32.4104 38.7453 35.3405 35.1308 35.3405Z" fill="#FF7B57"/>
</g>
<defs>
<clipPath id="clip0_4529_445">
<rect width="49" height="49" fill="white"/>
</clipPath>
</defs>
</svg>
