<svg width="46" height="46" viewBox="0 0 46 46" fill="none" xmlns="http://www.w3.org/2000/svg">
<path opacity="0.888" fill-rule="evenodd" clip-rule="evenodd" d="M6.82798 0.00655334C8.0376 -0.0109284 9.2468 0.00656384 10.4553 0.059051C10.9811 0.261356 11.3189 0.628839 11.4689 1.1615C11.5222 2.63101 11.54 4.10095 11.5222 5.5713C13.0163 5.55381 14.5099 5.57131 16.0031 5.6238C16.8847 5.87906 17.276 6.45654 17.1766 7.35622C21.2399 7.30498 25.2941 7.35748 29.339 7.51371C31.8106 9.94614 34.2821 12.3785 36.7538 14.8109C36.8071 17.4355 36.8249 20.0604 36.8071 22.6855C38.2264 22.91 39.2755 23.645 39.9544 24.8904C40.8659 27.1807 40.3147 29.0706 38.3007 30.5602C40.3818 32.1349 40.8975 34.0947 39.8477 36.4399C39.459 37.0849 38.9434 37.6099 38.3007 38.0148C40.2114 39.4379 40.7982 41.2578 40.0611 43.4746C39.4471 44.8353 38.3979 45.6577 36.9138 45.942C28.2683 46.0455 19.6266 46.0105 10.9888 45.837C8.74611 45.0114 7.73258 43.419 7.9482 41.0597C8.19635 39.7109 8.92545 38.7135 10.1353 38.0673C8.14866 36.7875 7.49083 35.02 8.16157 32.7651C8.53541 31.8202 9.15782 31.0852 10.0286 30.5602C8.89153 29.8427 8.19806 28.8278 7.9482 27.5153C7.89486 23.9457 7.87704 20.3758 7.89486 16.8058C6.91781 17.0578 6.22433 16.7428 5.81445 15.8608C5.76112 14.3213 5.74334 12.7813 5.76111 11.241C4.19596 11.2586 2.63122 11.241 1.06687 11.1885C0.664139 11.0371 0.361851 10.7747 0.160031 10.4011C-0.0533436 9.10617 -0.0533436 7.81116 0.160031 6.51626C0.27791 6.15538 0.509069 5.89289 0.853498 5.72879C2.48319 5.57808 4.11906 5.52559 5.76111 5.5713C5.74334 4.03097 5.76112 2.49104 5.81445 0.95151C6.00382 0.467272 6.34167 0.152287 6.82798 0.00655334ZM7.04136 0.95151C8.10887 0.934029 9.17574 0.951531 10.242 1.00401C10.2953 1.05651 10.3487 1.109 10.402 1.1615C10.5235 2.90291 10.6124 4.65283 10.6687 6.41126C12.4066 6.49724 14.1492 6.54974 15.8964 6.56875C15.9853 6.65625 16.0742 6.74378 16.1631 6.83124C16.2343 7.8812 16.2343 8.93115 16.1631 9.9811C16.1303 10.0659 16.0769 10.136 16.0031 10.1911C14.2653 10.2771 12.5226 10.3296 10.7754 10.3486C10.7221 10.4011 10.6687 10.4536 10.6154 10.5061C10.5799 12.186 10.5442 13.8659 10.5087 15.5458C10.4688 15.642 10.4154 15.7296 10.3487 15.8083C9.21063 15.8784 8.0727 15.8784 6.93467 15.8083C6.88133 15.7558 6.82798 15.7033 6.77464 15.6508C6.73911 13.9709 6.70348 12.291 6.66795 10.6111C6.63509 10.5262 6.58175 10.4562 6.50792 10.4011C4.77007 10.3151 3.02752 10.2626 1.28025 10.2436C1.13161 10.1206 1.04271 9.96315 1.01353 9.77111C0.9424 8.86112 0.9424 7.95123 1.01353 7.04123C1.04655 6.90831 1.09989 6.78578 1.17356 6.67375C2.94193 6.53674 4.72006 6.46674 6.50792 6.46376C6.56127 6.41126 6.61461 6.35876 6.66795 6.30627C6.70348 4.62634 6.73911 2.94642 6.77464 1.2665C6.84911 1.14149 6.93798 1.03649 7.04136 0.95151ZM17.1766 8.30118C20.9462 8.30118 24.7159 8.30118 28.4855 8.30118C28.451 10.6509 28.4867 12.9957 28.5922 15.3359C28.6482 15.4085 28.7194 15.461 28.8056 15.4933C31.1524 15.5458 33.4995 15.5634 35.8469 15.5458C35.8469 17.8907 35.8469 20.2357 35.8469 22.5805C27.8097 22.563 19.7727 22.5805 11.7356 22.633C10.6095 22.7584 9.66714 23.2309 8.90838 24.0505C8.85504 21.6358 8.83722 19.2209 8.85504 16.8058C9.42518 16.8232 9.99414 16.8057 10.562 16.7533C10.9287 16.6373 11.1954 16.4097 11.3622 16.0708C11.5153 14.467 11.5686 12.857 11.5222 11.241C13.0518 11.2586 14.5811 11.241 16.1098 11.1885C16.6149 11.0764 16.9528 10.779 17.1233 10.2961C17.1766 9.63199 17.1944 8.96706 17.1766 8.30118ZM29.4457 9.14114C31.309 10.9224 33.1583 12.7248 34.9934 14.5484C33.1445 14.6009 31.2953 14.6184 29.4457 14.6009C29.4457 12.781 29.4457 10.961 29.4457 9.14114ZM11.8423 23.5255C14.0112 23.6125 15.256 24.715 15.5763 26.8328C15.1603 29.272 13.7378 30.3219 11.3088 29.9827C9.35199 29.2452 8.58736 27.8627 9.01507 25.8354C9.51426 24.5322 10.4566 23.7621 11.8423 23.5255ZM36.167 23.5255C38.0072 23.7091 39.1274 24.689 39.5276 26.4653C39.521 28.467 38.5253 29.6919 36.5404 30.1402C29.3507 30.1559 22.1493 30.1384 14.9362 30.0877C16.4423 28.7263 16.8512 27.0989 16.1631 25.2054C15.9073 24.6144 15.5339 24.1068 15.0429 23.683C22.1022 23.6654 29.1435 23.6129 36.167 23.5255ZM11.3088 31.0851C13.7661 30.8267 15.1886 31.8942 15.5763 34.2875C15.1657 36.7575 13.7076 37.8075 11.2022 37.4373C9.47148 36.7793 8.70696 35.5369 8.90838 33.71C9.2213 32.3883 10.0215 31.5134 11.3088 31.0851ZM15.0429 31.1901C22.3509 31.0678 29.6767 31.0503 37.0205 31.1376C39.1261 31.9046 39.8907 33.3571 39.3142 35.4949C38.7932 36.602 37.9219 37.2845 36.7004 37.5423C29.4457 37.6124 22.1909 37.6124 14.9362 37.5423C16.4398 36.1906 16.8488 34.5632 16.1631 32.6601C15.9172 32.0689 15.5438 31.5789 15.0429 31.1901ZM11.4155 38.5398C13.8049 38.3502 15.1918 39.4177 15.5763 41.7422C15.2485 43.9861 13.9326 45.071 11.6289 44.997C9.65616 44.4574 8.74931 43.18 8.90838 41.1647C9.29321 39.8589 10.129 38.9839 11.4155 38.5398ZM15.0429 38.6448C22.3509 38.5225 29.6767 38.5049 37.0205 38.5923C39.1261 39.3593 39.8907 40.8118 39.3142 42.9496C38.8442 44.0648 38.0084 44.7472 36.8071 44.997C29.5524 45.067 22.2976 45.067 15.0429 44.997C16.7312 43.2005 16.9269 41.2581 15.6297 39.1698C15.4479 38.9731 15.2523 38.7981 15.0429 38.6448Z" fill="white"/>
<path opacity="0.823" fill-rule="evenodd" clip-rule="evenodd" d="M26.2449 4.20654C27.0058 4.23825 27.308 4.62324 27.1517 5.36149C26.6097 5.93755 26.1118 5.90254 25.6581 5.2565C25.5659 4.73515 25.7616 4.38516 26.2449 4.20654Z" fill="white"/>
<path opacity="0.835" fill-rule="evenodd" clip-rule="evenodd" d="M40.4345 17.7508C40.8617 17.716 41.2173 17.8561 41.5013 18.1708C41.7903 17.8172 42.1459 17.7123 42.5682 17.8558C42.7503 18.301 42.6436 18.6684 42.2481 18.9582C42.6622 19.2367 42.7689 19.6042 42.5682 20.0607C42.1459 20.2042 41.7903 20.0992 41.5013 19.7457C41.2123 20.0992 40.8567 20.2042 40.4345 20.0607C40.1946 19.6274 40.3013 19.2599 40.7545 18.9582C40.2781 18.6236 40.1714 18.2212 40.4345 17.7508Z" fill="white"/>
<path opacity="0.859" fill-rule="evenodd" clip-rule="evenodd" d="M3.84082 24.0505C4.0571 24.0335 4.27048 24.0511 4.48094 24.103C4.6074 24.2451 4.74964 24.3676 4.90769 24.4705C5.06573 24.3676 5.20798 24.2451 5.33444 24.103C5.99234 23.9106 6.22349 24.138 6.0279 24.7855C5.88356 24.9099 5.75908 25.05 5.6545 25.2055C5.75908 25.361 5.88356 25.501 6.0279 25.6255C6.17952 26.0381 6.05506 26.3181 5.6545 26.4654C5.37586 26.3311 5.12692 26.1562 4.90769 25.9404C4.68338 26.1788 4.41666 26.3538 4.10753 26.4654C3.7492 26.3889 3.60696 26.1789 3.68079 25.8354C3.82029 25.6107 3.98032 25.4007 4.16088 25.2055C3.96114 24.9918 3.78332 24.7643 3.62744 24.523C3.68547 24.3566 3.7566 24.1991 3.84082 24.0505Z" fill="white"/>
<path opacity="0.831" fill-rule="evenodd" clip-rule="evenodd" d="M43.8485 32.66C44.2328 32.6565 44.5528 32.7966 44.8087 33.08C45.0977 32.7264 45.4533 32.6214 45.8756 32.765C46.1154 33.1983 46.0087 33.5658 45.5555 33.8674C46.0087 34.1691 46.1154 34.5366 45.8756 34.9699C45.4533 35.1134 45.0977 35.0084 44.8087 34.6549C44.5197 35.0084 44.1641 35.1134 43.7418 34.9699C43.502 34.5366 43.6087 34.1691 44.0619 33.8674C43.5353 33.4991 43.4641 33.0966 43.8485 32.66Z" fill="white"/>
<path opacity="0.823" fill-rule="evenodd" clip-rule="evenodd" d="M7.14823 37.2798C7.91093 37.3131 8.21328 37.6981 8.05507 38.4347C7.50381 39.0219 7.00601 38.9869 6.56145 38.3297C6.46927 37.8084 6.66493 37.4584 7.14823 37.2798Z" fill="white"/>
</svg>
