<svg width="49" height="49" viewBox="0 0 49 49" fill="none" xmlns="http://www.w3.org/2000/svg">
<g clip-path="url(#clip0_4529_420)">
<path d="M44.5676 0H4.43245C1.9845 0 0 1.9845 0 4.43245V44.5674C0 47.0155 1.9845 49 4.43245 49H44.5674C47.0155 49 49 47.0155 49 44.5674V4.43245C49 1.9845 47.0155 0 44.5676 0ZM15.1627 42.3098C15.1627 43.0223 14.5852 43.5997 13.8728 43.5997H8.38195C7.66953 43.5997 7.09204 43.0223 7.09204 42.3098V19.2925C7.09204 18.5801 7.66953 18.0026 8.38195 18.0026H13.8728C14.5852 18.0026 15.1627 18.5801 15.1627 19.2925V42.3098ZM11.1274 15.8329C8.2465 15.8329 5.91104 13.4974 5.91104 10.6166C5.91104 7.73571 8.2465 5.40026 11.1274 5.40026C14.0082 5.40026 16.3437 7.73571 16.3437 10.6166C16.3437 13.4974 14.0084 15.8329 11.1274 15.8329ZM43.8576 42.4137C43.8576 43.0687 43.3265 43.5997 42.6716 43.5997H36.7795C36.1245 43.5997 35.5935 43.0687 35.5935 42.4137V31.6173C35.5935 30.0067 36.0659 24.5596 31.3845 24.5596C27.7532 24.5596 27.0167 28.288 26.8688 29.9612V42.4137C26.8688 43.0687 26.3379 43.5997 25.6828 43.5997H19.9842C19.3292 43.5997 18.7982 43.0687 18.7982 42.4137V19.1886C18.7982 18.5337 19.3292 18.0026 19.9842 18.0026H25.6828C26.3378 18.0026 26.8688 18.5337 26.8688 19.1886V21.1967C28.2153 19.1761 30.2163 17.6164 34.4769 17.6164C43.9116 17.6164 43.8576 26.4308 43.8576 31.2738V42.4137Z" fill="#0077B7"/>
</g>
<defs>
<clipPath id="clip0_4529_420">
<rect width="49" height="49" fill="white"/>
</clipPath>
</defs>
</svg>
