<svg width="48" height="49" viewBox="0 0 48 49" fill="none" xmlns="http://www.w3.org/2000/svg">
<path fill-rule="evenodd" clip-rule="evenodd" d="M8.27751 8.59141C9.83372 9.82966 10.4173 9.73565 13.3402 9.54391L40.8923 7.92343C41.4771 7.92343 40.9908 7.35317 40.7962 7.25792L36.2211 4.01819C35.3445 3.35144 34.176 2.58821 31.9377 2.7787L5.25983 4.6837C4.2872 4.77771 4.09267 5.25396 4.48046 5.6362L8.27751 8.59141Z" fill="white"/>
<path fill-rule="evenodd" clip-rule="evenodd" d="M9.93115 14.8783V43.2676C9.93115 44.7929 10.7093 45.3644 12.4625 45.2703L42.7417 43.5546C44.4949 43.4606 44.6907 42.4104 44.6907 41.1709V12.972C44.6907 11.735 44.2044 11.067 43.132 11.1623L11.4899 12.972C10.3215 13.0673 9.93115 13.64 9.93115 14.8783Z" fill="white"/>
<path fill-rule="evenodd" clip-rule="evenodd" d="M8.27747 8.59119C9.83368 9.82944 10.4173 9.73543 13.3402 9.54369L40.8922 7.92321C41.4771 7.92321 40.9907 7.35294 40.7962 7.2577L36.2211 4.01797C35.3444 3.35122 34.176 2.58798 31.9377 2.77848L5.25979 4.68348C4.28716 4.77749 4.09263 5.25374 4.48042 5.63598L8.27747 8.59119ZM9.93095 14.8789V43.2683C9.93095 44.7935 10.7091 45.365 12.4623 45.271L42.7415 43.5553C44.4947 43.4613 44.6905 42.411 44.6905 41.1716V12.9727C44.6905 11.7357 44.2042 11.0677 43.1318 11.1629L11.4897 12.9727C10.3213 13.0679 9.93095 13.6407 9.93095 14.8789ZM39.8223 16.4017C40.0168 17.2602 39.8223 18.1174 38.9444 18.2139L37.4855 18.4984V39.4571C36.2185 40.1238 35.0501 40.5048 34.0775 40.5048C32.5187 40.5048 32.1284 40.0286 30.9613 38.5998L21.4181 23.9289V38.1236L24.4383 38.7903C24.4383 38.7903 24.4383 40.5048 22.0017 40.5048L15.2855 40.8858C15.0909 40.5048 15.2855 39.5523 15.9663 39.3618L17.7196 38.8856V20.1189L15.2855 19.9284C15.0897 19.0699 15.576 17.8329 16.9402 17.7364L24.1453 17.2602L34.0762 32.1228V18.9747L31.5436 18.6901C31.3491 17.6412 32.1272 16.8792 33.1011 16.7851L39.8223 16.4017ZM3.01768 2.11297L30.7667 0.111491C34.1747 -0.174259 35.0514 0.0174781 37.1924 1.54024L46.0509 7.63746C47.5124 8.68644 48 8.97219 48 10.114V43.5528C48 45.6483 47.2206 46.8878 44.4947 47.077L12.2691 48.9833C10.2227 49.0785 9.24884 48.7928 8.17768 47.4593L1.65474 39.1713C0.486316 37.6461 0 36.5043 0 35.1696V5.44548C0 3.73222 0.779368 2.30223 3.01768 2.11297Z" fill="#424242"/>
</svg>
