<svg width="44" height="49" viewBox="0 0 44 49" fill="none" xmlns="http://www.w3.org/2000/svg">
<path d="M38.5378 9.43532C38.5033 9.18793 38.2829 9.05108 38.1011 9.03615C37.9193 9.02122 34.3703 8.9682 34.3703 8.9682C34.3703 8.9682 31.4022 6.1351 31.109 5.84674C30.8158 5.55839 30.243 5.64586 30.0207 5.71018C30.0174 5.71113 29.4637 5.87967 28.5292 6.164C28.3733 5.66615 28.1433 5.05471 27.8156 4.44029C26.7587 2.45885 25.2114 1.41004 23.3413 1.40736C23.3392 1.40736 23.3373 1.40736 23.335 1.40736C23.2054 1.40736 23.0762 1.41933 22.9469 1.43091C22.892 1.36583 22.8364 1.30132 22.7778 1.23979C21.9637 0.38334 20.9182 -0.0339256 19.6668 0.0021545C17.2511 0.0701994 14.8466 1.78453 12.8962 4.82904C11.5233 6.97183 10.4804 9.66367 10.1837 11.747C7.41068 12.591 5.47047 13.1816 5.4285 13.1945C4.02873 13.6263 3.98471 13.6695 3.80116 14.9656C3.6622 15.9469 0 43.7829 0 43.7829L30.6961 48.9999L44 45.7499C44 45.7499 38.5722 9.68272 38.5378 9.43532ZM11.9034 11.2235C12.7334 7.40919 15.9854 1.68682 19.7132 1.58145C20.2803 1.56977 20.758 1.69208 21.1659 1.95593C20.5135 2.28888 19.8824 2.7674 19.2904 3.39138C17.7562 5.00896 16.5809 7.52059 16.1123 9.94255C14.6497 10.3877 13.2193 10.823 11.9034 11.2235ZM23.0037 7.84541C21.3956 8.33474 19.64 8.86905 17.8789 9.40499C18.3747 7.54088 19.3132 5.68491 20.4665 4.469C20.8956 4.01671 21.4958 3.51197 22.2064 3.22381C22.875 4.59303 23.0198 6.53408 23.0037 7.84541ZM24.6094 7.35675C24.5916 6.15462 24.4455 4.48259 23.8757 3.03719C25.7085 3.37846 26.6108 5.41656 26.9917 6.6318C26.2854 6.84665 25.4809 7.09146 24.6094 7.35675Z" fill="#95BF47"/>
<path d="M38.1012 9.03638C37.9194 9.02145 34.3704 8.96843 34.3704 8.96843C34.3704 8.96843 31.4023 6.13533 31.1091 5.84698C30.9998 5.73941 30.8515 5.68438 30.697 5.66064L30.6978 48.9998L44.0001 45.7501C44.0001 45.7501 38.5724 9.68295 38.5379 9.43556C38.5034 9.18817 38.283 9.05131 38.1012 9.03638Z" fill="#5E8E3E"/>
<path d="M23.3236 15.7592L21.7783 21.4402C21.7783 21.4402 20.0547 20.6688 18.0113 20.7956C15.0152 20.9816 14.9833 22.8391 15.0132 23.3046C15.1764 25.8454 21.9773 26.4006 22.3596 32.3516C22.6604 37.0336 19.8328 40.2362 15.7585 40.4891C10.8694 40.7924 8.17725 37.957 8.17725 37.957L9.21323 33.625C9.21323 33.625 11.9225 35.634 14.0913 35.4995C15.5079 35.4115 16.014 34.2792 15.9626 33.4783C15.7497 30.1639 10.2117 30.3592 9.86185 24.9134C9.56738 20.33 12.6297 15.6867 19.3867 15.2674C21.9903 15.1059 23.3236 15.7592 23.3236 15.7592Z" fill="white"/>
</svg>
