<svg width="49" height="49" viewBox="0 0 49 49" fill="none" xmlns="http://www.w3.org/2000/svg">
<path d="M0.85498 48.149L4.19982 36.0043C2.13333 32.4537 1.04721 28.415 1.04721 24.2902C1.05682 11.3607 11.62 0.852539 24.5957 0.852539C30.8913 0.852539 36.812 3.29297 41.2526 7.72402C45.7028 12.1551 48.1537 18.0408 48.1441 24.3094C48.1345 37.2293 37.5714 47.7471 24.5957 47.7471H24.5861C20.6453 47.7471 16.7718 46.7613 13.3309 44.8951L0.85498 48.149Z" fill="url(#paint0_linear_4529_464)"/>
<path d="M-0.000244141 49L3.45994 36.415C1.32616 32.74 0.211211 28.5578 0.211211 24.2799C0.211211 10.891 11.1588 0 24.6055 0C31.1318 0 37.2544 2.53613 41.8583 7.12031C46.4623 11.7141 48.9998 17.8104 48.9998 24.299C48.9901 37.6879 38.0521 48.5789 24.6055 48.5789H24.5959C20.5109 48.5789 16.5029 47.5549 12.937 45.6217L-0.000244141 49ZM13.5329 41.2289L14.273 41.6691C17.3872 43.5066 20.9531 44.4828 24.5959 44.4828H24.6055C35.7838 44.4828 44.8764 35.4293 44.8764 24.299C44.8764 18.9109 42.7714 13.8387 38.946 10.0201C35.1206 6.20156 30.0264 4.10566 24.6151 4.10566C13.4272 4.10566 4.33459 13.1592 4.33459 24.2895C4.33459 28.0984 5.40148 31.8117 7.42953 35.0273L7.91011 35.793L5.86284 43.2387L13.5329 41.2289Z" fill="url(#paint1_linear_4529_464)"/>
<path fill-rule="evenodd" clip-rule="evenodd" d="M18.5025 14.1252C18.0411 13.1108 17.5605 13.0917 17.128 13.0725C16.7724 13.0534 16.3687 13.0629 15.9554 13.0629C15.5517 13.0629 14.8885 13.2161 14.331 13.819C13.7736 14.4219 12.1973 15.8958 12.1973 18.8817C12.1973 21.8676 14.3791 24.7579 14.6867 25.1598C14.9942 25.5618 18.9062 31.8877 25.0961 34.3186C30.2479 36.3379 31.2955 35.936 32.4105 35.8403C33.5254 35.7446 36.0148 34.376 36.5243 32.9596C37.0337 31.5432 37.0337 30.3278 36.8799 30.079C36.7261 29.8301 36.3224 29.677 35.7073 29.3708C35.1017 29.0645 32.1029 27.6002 31.5454 27.3993C30.988 27.1983 30.5843 27.093 30.171 27.7055C29.7673 28.3084 28.5947 29.677 28.239 30.079C27.8834 30.4809 27.5278 30.5383 26.9223 30.2321C26.3167 29.9258 24.3463 29.2846 22.0203 27.2174C20.2037 25.6096 18.9831 23.619 18.6274 23.0161C18.2718 22.4131 18.589 22.0782 18.8966 21.7815C19.1657 21.5135 19.5021 21.0733 19.8097 20.7192C20.1172 20.3651 20.2134 20.1163 20.4152 19.7047C20.617 19.3028 20.5209 18.9487 20.3671 18.6424C20.2326 18.3266 19.0503 15.3311 18.5025 14.1252Z" fill="white"/>
<defs>
<linearGradient id="paint0_linear_4529_464" x1="24.4994" y1="48.1529" x2="24.4994" y2="0.849285" gradientUnits="userSpaceOnUse">
<stop stop-color="#20B038"/>
<stop offset="1" stop-color="#60D66A"/>
</linearGradient>
<linearGradient id="paint1_linear_4529_464" x1="24.4998" y1="49" x2="24.4998" y2="0" gradientUnits="userSpaceOnUse">
<stop stop-color="#F9F9F9"/>
<stop offset="1" stop-color="white"/>
</linearGradient>
</defs>
</svg>
