<svg width="49" height="49" viewBox="0 0 49 49" fill="none" xmlns="http://www.w3.org/2000/svg">
<g clip-path="url(#clip0_4531_5809)">
<path fill-rule="evenodd" clip-rule="evenodd" d="M24.5 0C38.0315 0 49 10.9685 49 24.5C49 38.0315 38.0315 49 24.5 49C10.9685 49 0 38.0315 0 24.5C0 10.9685 10.9685 0 24.5 0Z" fill="#008DFF"/>
<path d="M11.2393 18.0293V27.7413C11.2488 29.9376 13.0423 31.7043 15.2291 31.6957H29.3865C29.7894 31.6957 30.1129 31.3722 30.1129 30.9789V21.266C30.1043 19.0706 28.3108 17.3029 26.123 17.3115H11.9656C11.5637 17.3115 11.2393 17.635 11.2393 18.0293ZM31.0144 21.8172L36.859 17.5479C37.3662 17.1278 37.7605 17.2331 37.7605 17.9939V31.0133C37.7605 31.8795 37.2791 31.7751 36.859 31.4603L31.0144 27.1986V21.8172Z" fill="white"/>
</g>
<defs>
<clipPath id="clip0_4531_5809">
<rect width="49" height="49" fill="white"/>
</clipPath>
</defs>
</svg>
