<svg width="251" height="60" viewBox="0 0 251 60" fill="none" xmlns="http://www.w3.org/2000/svg">
<path d="M25.9868 35.4278C26.084 35.5897 26.1174 35.782 26.0807 35.9671C25.7378 37.5267 24.9035 38.9348 23.7009 39.984C23.6349 40.0339 23.5794 40.0964 23.5376 40.1678C23.5226 40.2005 23.5148 40.236 23.5148 40.272C23.5148 40.308 23.5226 40.3435 23.5376 40.3761C23.5616 40.4041 23.5919 40.4261 23.6258 40.4403C23.6599 40.4545 23.6967 40.4605 23.7335 40.4579C23.9077 40.4115 24.076 40.3457 24.2356 40.2618C24.941 39.8607 25.5643 39.3297 26.0726 38.6967C26.3787 38.3249 26.6808 37.953 26.9706 37.5689C27.5164 36.8103 27.9203 35.9589 28.1627 35.056C28.383 34.3246 28.5708 33.5849 28.7994 32.8535C28.8928 32.5853 29.0061 32.3244 29.1383 32.0731C29.1915 31.9956 29.2531 31.9244 29.322 31.8606H29.3791C29.4362 32.0526 29.5057 32.2365 29.5464 32.4327C29.6532 33.0495 29.6684 33.6787 29.5914 34.3C29.5067 35.1087 29.3412 35.9067 29.0975 36.6823C28.9267 37.159 28.6963 37.612 28.4117 38.0307C27.6963 39.2109 26.8515 40.3073 25.8929 41.2996C25.1868 41.9823 24.4234 42.6029 23.611 43.1548C23.5518 43.1852 23.498 43.2253 23.4519 43.2733C23.4044 43.3306 23.3797 43.4032 23.3825 43.4776C23.3995 43.5109 23.4244 43.5393 23.455 43.5607C23.4856 43.5821 23.521 43.5957 23.558 43.6002C23.7287 43.5991 23.8987 43.5772 24.0641 43.5348C24.8184 43.3172 25.5238 42.9565 26.1419 42.4724C27.8709 41.1965 29.2751 39.5306 30.2404 37.6098C30.8556 36.3566 31.2544 35.0082 31.4201 33.6217C31.5195 32.7464 31.5291 31.8633 31.4488 30.9861C31.3787 30.5366 31.3925 30.078 31.4895 29.6336C31.5152 29.5317 31.5522 29.433 31.5997 29.3393C31.71 29.1268 31.8692 29.1146 31.9753 29.3393C32.087 29.552 32.1693 29.7789 32.2203 30.0136C32.4444 31.1376 32.5145 32.2868 32.4284 33.4296C32.27 35.2864 31.8037 37.1037 31.0487 38.8071C30.2841 40.5609 29.136 42.1207 27.6891 43.3713C27.2196 43.78 26.7706 44.1886 26.2848 44.5728C25.7014 44.9974 25.0764 45.3616 24.4193 45.6596C22.9696 46.3806 21.4267 46.8963 19.8351 47.1919C18.8596 47.3614 17.8689 47.4272 16.8796 47.3881C16.3939 47.3881 15.904 47.3555 15.4183 47.3309C14.32 47.2701 13.2365 47.0498 12.2014 46.6771C10.7027 46.1551 9.26217 45.4785 7.90301 44.6586C6.31796 43.6857 4.96612 42.3758 3.94334 40.8215C3.43842 40.0907 2.99858 39.3168 2.6289 38.5088C2.61005 38.4608 2.57972 38.4182 2.54057 38.3847C2.50142 38.3513 2.45465 38.3279 2.40438 38.3168C2.13593 38.2499 1.8862 38.1228 1.67403 37.9452C1.46187 37.7675 1.29285 37.5438 1.17973 37.2911C0.877039 36.5511 0.642037 35.7853 0.477612 35.0029C0.178447 33.7397 0.0182877 32.4476 0 31.1496C0.0122606 30.3277 0.0873201 29.5081 0.224518 28.6978C0.379469 27.5968 0.653211 26.5158 1.04094 25.4738C1.38386 24.5619 1.86583 23.7087 2.46969 22.9445C2.82076 22.5032 3.11059 22.0087 3.45348 21.5592C5.62973 18.6801 8.74549 16.6558 12.2586 15.8386C12.9362 15.6751 13.6139 15.5035 14.2997 15.3768C14.912 15.2624 15.5244 15.1888 16.153 15.1316C16.8796 15.0663 17.6062 15.0091 18.337 15.0009C21.2684 14.96 24.1401 15.8325 26.5543 17.4976C26.8294 17.6641 27.0773 17.8723 27.289 18.1146C27.4454 18.3053 27.5495 18.5334 27.5912 18.7765C27.6073 18.8337 27.64 18.8849 27.6851 18.9236C28.2606 19.4794 28.873 20.0065 29.4036 20.6031C30.2469 21.5253 30.8573 22.6365 31.1834 23.8434C31.3329 24.3309 31.3849 24.8431 31.3366 25.3507C31.2882 25.8583 31.1405 26.3514 30.9018 26.8018C30.5025 27.4747 29.9411 28.0367 29.2689 28.4363C28.5211 28.9456 27.624 29.1888 26.7216 29.1268C25.878 29.0883 25.0773 28.7441 24.4683 28.1584C23.8285 27.4929 23.1468 26.8692 22.4272 26.291C21.9537 25.9314 21.4638 25.5924 20.97 25.2695C20.3728 24.9103 19.7113 24.6716 19.0227 24.5667C18.2394 24.4233 17.4417 24.3752 16.6469 24.4237C14.9094 24.4568 13.2282 25.0469 11.8504 26.1072C10.8179 26.888 9.96806 27.8851 9.36034 29.0288C9.01617 29.7227 8.7991 30.4729 8.71943 31.2436C8.65297 31.7189 8.61481 32.1978 8.60514 32.6778C8.64365 34.0458 9.00004 35.3862 9.64609 36.5923C10.1234 37.528 10.7587 38.374 11.5238 39.0932C12.2355 39.7333 13.024 40.2824 13.8711 40.7276C14.8352 41.2508 15.9 41.5614 16.9939 41.6388C18.4304 41.7889 19.8815 41.571 21.2108 41.0055C21.8479 40.7057 22.4345 40.3087 22.9497 39.8286C23.8396 39.0625 24.5861 38.1436 25.1541 37.1153C25.3664 36.7435 25.5133 36.3349 25.693 35.9427C25.746 35.8242 25.8072 35.7057 25.8684 35.5913C25.9059 35.5358 25.9497 35.4851 25.9991 35.4401" fill="black"/>
<path d="M239.772 29.2004C242.712 29.2004 244.67 31.3906 244.67 34.6269C244.67 37.8632 242.712 40.0207 239.772 40.0207C236.833 40.0207 234.842 37.8632 234.842 34.5942C234.842 31.3252 236.8 29.2004 239.772 29.2004ZM153.721 28.8735C156.007 28.8735 157.509 30.1484 157.869 32.1751H149.606C149.965 30.1321 151.468 28.8735 153.721 28.8735ZM79.6547 36.8497C79.6547 38.8438 78.479 40.0207 76.3889 40.0207C74.2989 40.0207 73.058 38.8438 73.058 36.8497V25.67C73.058 25.5615 73.015 25.4577 72.9383 25.3809C72.8618 25.3043 72.758 25.2613 72.6497 25.2613H68.4043C68.296 25.2613 68.1922 25.3043 68.1157 25.3809C68.0391 25.4577 67.9961 25.5615 67.9961 25.67V37.0459C67.9961 42.0148 70.9026 44.4992 74.5601 44.4992C77.1727 44.4992 78.9362 42.8974 79.6873 40.4783V43.5838C79.6932 43.6903 79.7381 43.7909 79.8134 43.8662C79.8887 43.9416 79.9892 43.9865 80.0956 43.9925H84.3736C84.4818 43.9925 84.5857 43.9494 84.6623 43.8728C84.7388 43.7961 84.7819 43.6922 84.7819 43.5838V25.67C84.7819 25.5615 84.7388 25.4577 84.6623 25.3809C84.5857 25.3043 84.4818 25.2613 84.3736 25.2613H80.0792C79.9709 25.2613 79.8671 25.3043 79.7906 25.3809C79.714 25.4577 79.671 25.5615 79.671 25.67L79.6547 36.8497ZM123.611 36.8497C123.611 38.8438 122.435 40.0207 120.345 40.0207C118.255 40.0207 117.014 38.8438 117.014 36.8497V25.67C117.014 25.5615 116.971 25.4577 116.894 25.3809C116.819 25.3043 116.715 25.2613 116.606 25.2613H112.361C112.252 25.2613 112.148 25.3043 112.072 25.3809C111.995 25.4577 111.953 25.5615 111.953 25.67V37.0459C111.953 42.0148 114.859 44.4992 118.517 44.4992C121.129 44.4992 122.893 42.8974 123.643 40.4783V43.5838C123.649 43.6903 123.695 43.7909 123.77 43.8662C123.845 43.9416 123.946 43.9865 124.052 43.9925H128.33C128.439 43.9925 128.543 43.9494 128.619 43.8728C128.695 43.7961 128.738 43.6922 128.738 43.5838V25.67C128.738 25.5615 128.695 25.4577 128.619 25.3809C128.543 25.3043 128.439 25.2613 128.33 25.2613H124.036C123.928 25.2613 123.824 25.3043 123.747 25.3809C123.67 25.4577 123.627 25.5615 123.627 25.67L123.611 36.8497ZM132.918 43.5838C132.918 43.6922 132.962 43.7961 133.037 43.8728C133.114 43.9494 133.218 43.9925 133.327 43.9925H137.539C137.647 43.9925 137.751 43.9494 137.828 43.8728C137.904 43.7961 137.948 43.6922 137.948 43.5838V33.3193C137.948 30.7368 139.581 30.2465 141.867 30.2465H143.564C143.673 30.2465 143.777 30.2035 143.854 30.1268C143.93 30.0502 143.973 29.9462 143.973 29.8378V25.67C143.973 25.5615 143.93 25.4577 143.854 25.3809C143.777 25.3043 143.673 25.2613 143.564 25.2613H143.157C140.414 25.2613 138.715 26.5362 137.932 29.6418V25.6863C137.932 25.5779 137.888 25.4739 137.812 25.3973C137.735 25.3207 137.631 25.2777 137.523 25.2777H133.311C133.202 25.2777 133.098 25.3207 133.021 25.3973C132.945 25.4739 132.902 25.5779 132.902 25.6863L132.918 43.5838ZM198.526 43.5838C198.526 43.6922 198.57 43.7961 198.646 43.8728C198.722 43.9494 198.826 43.9925 198.935 43.9925H203.18C203.289 43.9925 203.392 43.9494 203.469 43.8728C203.545 43.7961 203.588 43.6922 203.588 43.5838V32.1751C203.588 30.3446 204.601 29.2004 206.527 29.2004C208.454 29.2004 209.532 30.3446 209.532 32.1751V43.5838C209.532 43.6922 209.575 43.7961 209.651 43.8728C209.728 43.9494 209.832 43.9925 209.94 43.9925H214.218C214.327 43.9925 214.43 43.9494 214.507 43.8728C214.584 43.7961 214.626 43.6922 214.626 43.5838V32.1751C214.626 30.3446 215.671 29.2004 217.566 29.2004C219.46 29.2004 220.57 30.3446 220.57 32.1751V43.5838C220.575 43.6903 220.621 43.7909 220.696 43.8662C220.771 43.9416 220.872 43.9865 220.978 43.9925H225.223C225.331 43.9925 225.435 43.9494 225.512 43.8728C225.589 43.7961 225.632 43.6922 225.632 43.5838V32.0117C225.632 27.1736 222.774 24.7219 219.133 24.7219C216.063 24.7219 214.496 26.716 213.679 29.2168C213.449 27.9693 212.795 26.84 211.828 26.0207C210.86 25.2014 209.639 24.7424 208.372 24.7219C205.695 24.7219 204.487 26.3564 203.572 28.7754V25.67C203.572 25.5615 203.529 25.4577 203.452 25.3809C203.375 25.3043 203.272 25.2613 203.163 25.2613H198.919C198.81 25.2613 198.706 25.3043 198.629 25.3809C198.553 25.4577 198.51 25.5615 198.51 25.67L198.526 43.5838ZM250.092 34.6269C250.092 29.135 246.859 24.7219 241.666 24.7219C238.27 24.7219 235.657 26.5199 234.842 29.0697V25.67C234.842 25.5615 234.798 25.4577 234.721 25.3809C234.645 25.3043 234.541 25.2613 234.433 25.2613H230.171C230.063 25.2613 229.959 25.3043 229.883 25.3809C229.806 25.4577 229.763 25.5615 229.763 25.67V50.841C229.763 50.9493 229.806 51.0533 229.883 51.1299C229.959 51.2065 230.063 51.2495 230.171 51.2495H234.449C234.557 51.2495 234.661 51.2065 234.738 51.1299C234.814 51.0533 234.858 50.9493 234.858 50.841V40.2168C235.674 42.7666 238.287 44.5319 241.682 44.5319C246.875 44.5319 250.108 40.1514 250.108 34.6269H250.092ZM179.357 33.5236L182.651 24.6239L185.953 33.5236H179.357ZM163.028 34.6351C163.028 29.0451 159.697 24.5013 153.688 24.5013C148.039 24.5013 144.349 29.0451 144.349 34.6351C144.349 40.4212 148.463 44.7362 154.733 44.7362C158.13 44.7362 161.036 43.2324 162.408 41.2384C162.443 41.1917 162.469 41.1382 162.484 41.0813C162.499 41.0242 162.502 40.9649 162.492 40.9067C162.483 40.8486 162.462 40.793 162.431 40.7432C162.399 40.6934 162.359 40.6505 162.31 40.6172L159.452 38.0675C159.413 38.0326 159.366 38.0064 159.316 37.9907C159.265 37.9749 159.212 37.97 159.16 37.9761C159.108 37.9823 159.057 37.9995 159.012 38.0265C158.967 38.0535 158.928 38.0897 158.897 38.1328C158.409 38.8376 157.754 39.4098 156.989 39.7979C156.226 40.1859 155.378 40.3776 154.52 40.3557C152.104 40.3557 149.883 39.2116 149.557 36.0734H162.62C162.675 36.0785 162.73 36.0713 162.782 36.0525C162.834 36.0337 162.881 36.0039 162.919 35.9649C162.959 35.9258 162.989 35.8788 163.007 35.8269C163.026 35.775 163.033 35.7197 163.028 35.6648V34.6351ZM96.4894 29.2413C96.4894 29.3496 96.5324 29.4536 96.609 29.5302C96.6855 29.6068 96.7893 29.6498 96.8976 29.6498H99.6408V38.4271C99.6408 41.9575 101.437 44.017 105.193 44.017H108.687C108.795 44.017 108.899 43.9739 108.976 43.8973C109.052 43.8207 109.095 43.7167 109.095 43.6084V39.9307C109.1 39.8758 109.093 39.8205 109.074 39.7686C109.055 39.7168 109.026 39.6697 108.987 39.6307C108.947 39.5916 108.901 39.5618 108.849 39.543C108.797 39.5242 108.742 39.5171 108.687 39.5222H106.315C105.139 39.5222 104.748 39.1135 104.748 38.1165V29.658H108.634C108.742 29.658 108.845 29.615 108.922 29.5384C108.999 29.4618 109.042 29.3578 109.042 29.2495V25.6863C109.042 25.5779 108.999 25.4739 108.922 25.3973C108.845 25.3207 108.742 25.2777 108.634 25.2777H104.748V19.8839C104.748 19.7755 104.705 19.6716 104.628 19.5949C104.551 19.5183 104.447 19.4752 104.34 19.4752H100C99.9452 19.4702 99.8898 19.4773 99.8381 19.4961C99.7862 19.5149 99.7392 19.5448 99.7002 19.5838C99.6613 19.6228 99.6313 19.6699 99.6127 19.7218C99.5939 19.7736 99.5868 19.829 99.5918 19.8839V25.245H96.8486C96.7404 25.245 96.6365 25.288 96.56 25.3647C96.4834 25.4413 96.4404 25.5452 96.4404 25.6536L96.4894 29.2413ZM169.838 43.6247C169.819 43.6687 169.812 43.7164 169.817 43.7635C169.821 43.8108 169.838 43.8563 169.863 43.8962C169.888 43.9362 169.923 43.9695 169.964 43.9933C170.005 44.0171 170.051 44.0308 170.099 44.0333H175.095C175.22 44.037 175.342 43.9988 175.443 43.9247C175.544 43.8507 175.616 43.7451 175.65 43.6247L177.642 38.1982H187.7L189.741 43.6247C189.776 43.7451 189.848 43.8507 189.949 43.9247C190.05 43.9988 190.172 44.037 190.297 44.0333H195.391C195.438 44.0308 195.485 44.0171 195.526 43.9933C195.566 43.9695 195.602 43.9362 195.627 43.8962C195.652 43.8563 195.668 43.8108 195.672 43.7635C195.677 43.7164 195.67 43.6687 195.652 43.6247L186.508 19.8594C186.472 19.7511 186.401 19.6576 186.306 19.5929C186.213 19.5281 186.101 19.4954 185.986 19.4998H179.487C179.368 19.488 179.248 19.5171 179.147 19.5824C179.046 19.6477 178.971 19.7454 178.932 19.8594L169.838 43.6247ZM56.0273 39.4404C51.6839 39.4404 48.7774 36.2042 48.7774 31.7257C48.7774 27.2472 51.6839 24.0109 56.0273 24.0109C57.2211 24.0233 58.3957 24.3132 59.4583 24.8578C60.521 25.4024 61.4425 26.1868 62.1505 27.1491C62.1806 27.2022 62.2229 27.2473 62.274 27.2808C62.325 27.3142 62.3833 27.3349 62.444 27.3414C62.5046 27.3478 62.5659 27.3396 62.6228 27.3176C62.6797 27.2955 62.7304 27.2601 62.7709 27.2145L66.2326 24.2398C66.3129 24.1662 66.3637 24.0661 66.3757 23.9578C66.3877 23.8496 66.3601 23.7407 66.298 23.6513C64.1752 20.5458 60.5829 18.9767 56.0436 18.9767C48.2876 18.9767 43.1767 24.7628 43.1767 31.7257C43.1767 38.754 48.3039 44.54 56.0436 44.54C60.5829 44.54 64.4038 42.6113 66.298 39.8C66.361 39.711 66.3891 39.6018 66.377 39.4933C66.365 39.3849 66.3136 39.2847 66.2326 39.2116L62.7383 36.3512C62.7008 36.3063 62.6526 36.2715 62.5983 36.2497C62.5439 36.2279 62.485 36.2198 62.4269 36.2263C62.3688 36.2327 62.3131 36.2535 62.2648 36.2867C62.2166 36.3199 62.1773 36.3646 62.1505 36.4167C61.43 37.356 60.5027 38.1162 59.4406 38.6379C58.3784 39.1595 57.2104 39.4286 56.0273 39.4241V39.4404ZM93.6809 18.1758H89.3538C89.299 18.1708 89.2437 18.1779 89.1918 18.1967C89.14 18.2154 89.093 18.2454 89.0541 18.2844C89.015 18.3234 88.9852 18.3705 88.9664 18.4223C88.9477 18.4742 88.9406 18.5295 88.9456 18.5845V43.592C88.9456 43.7003 88.9886 43.8043 89.0652 43.8809C89.1417 43.9576 89.2456 44.0007 89.3538 44.0007H93.6605C93.7687 44.0007 93.8726 43.9576 93.9492 43.8809C94.0257 43.8043 94.0686 43.7003 94.0686 43.592V18.5763C94.0737 18.5214 94.0666 18.466 94.0479 18.4142C94.0291 18.3623 93.9992 18.3152 93.9602 18.2762C93.9213 18.2372 93.8742 18.2073 93.8225 18.1885C93.7706 18.1698 93.7154 18.1626 93.6605 18.1677" fill="black"/>
</svg>
