<svg width="204" height="60" viewBox="0 0 204 60" fill="none" xmlns="http://www.w3.org/2000/svg">
<path d="M12.4884 40.0003C11.4163 38.9248 10.5682 37.6496 9.99265 36.2478C9.4171 34.846 9.12539 33.3451 9.13424 31.831C9.13034 30.317 9.43013 28.8174 10.0161 27.4199C10.602 26.0224 11.4623 24.755 12.5467 23.6919C13.0113 23.2815 13.3866 22.7811 13.6498 22.2214C13.913 21.6617 14.0586 21.0546 14.0775 20.437C14.0964 19.8195 13.9884 19.2046 13.7599 18.63C13.5315 18.0554 13.1875 17.5333 12.749 17.0955C12.3105 16.6576 11.7867 16.3134 11.2097 16.0838C10.6327 15.8543 10.0146 15.7442 9.39334 15.7603C8.77206 15.7765 8.16063 15.9185 7.59649 16.1778C7.03235 16.437 6.52737 16.808 6.11247 17.268C2.21541 21.1191 0.0167483 26.3514 9.52887e-05 31.814C-0.0165577 37.2765 2.15016 42.5219 6.02367 46.3965C6.43721 46.8559 6.94053 47.2267 7.50294 47.4864C8.06535 47.7461 8.67507 47.8892 9.29493 47.907C9.91478 47.9248 10.5318 47.8169 11.1083 47.5899C11.6849 47.3629 12.2089 47.0216 12.6484 46.5867C13.0879 46.1519 13.4338 45.6326 13.6648 45.0605C13.8959 44.4884 14.0073 43.8756 13.9923 43.2593C13.9774 42.643 13.8363 42.0363 13.5777 41.476C13.3192 40.9157 12.9485 40.4136 12.4884 40.0003Z" fill="#FFDA00"/>
<path d="M28.9237 40.0579C27.8422 41.1258 26.5595 41.9711 25.1489 42.5454C23.7383 43.1197 22.2276 43.4118 20.7033 43.4048C19.1794 43.4071 17.6703 43.1071 16.2645 42.5224C14.8586 41.9378 13.5842 41.0802 12.5159 39.9999C12.103 39.5381 11.5996 39.165 11.0366 38.9033C10.4736 38.6417 9.86279 38.497 9.24158 38.4782C8.62037 38.4594 8.00183 38.5668 7.42384 38.7939C6.84585 39.021 6.32056 39.3629 5.88015 39.7988C5.43973 40.2348 5.09346 40.7555 4.86252 41.329C4.63159 41.9026 4.52085 42.517 4.5371 43.1347C4.55334 43.7523 4.69623 44.3601 4.957 44.9209C5.21778 45.4817 5.59096 45.9837 6.05369 46.3961C7.96788 48.3201 10.2452 49.8496 12.7551 50.897C15.2651 51.9444 17.9583 52.4891 20.6803 52.4999C23.4024 52.5107 26.0999 51.9873 28.6181 50.9598C31.1364 49.9323 33.4259 48.4209 35.3554 46.5122C35.7818 46.0923 36.1207 45.5932 36.353 45.0431C36.5852 44.4931 36.7062 43.903 36.709 43.3064C36.7119 42.7099 36.5965 42.1187 36.3694 41.5665C36.1424 41.0143 35.8082 40.512 35.3859 40.0882C34.9636 39.6644 34.4614 39.3274 33.9081 39.0966C33.3548 38.8657 32.7612 38.7454 32.1611 38.7426C31.561 38.7398 30.9663 38.8545 30.4108 39.0802C29.8554 39.3059 29.35 39.6381 28.9237 40.0579Z" fill="#EB5A68"/>
<path d="M12.4582 46.3961C11.8178 47.0314 11.0021 47.4633 10.1144 47.6371C9.22674 47.8109 8.30716 47.7186 7.47232 47.3721C6.63747 47.0255 5.92498 46.4403 5.42521 45.6906C4.92544 44.9409 4.66092 44.0606 4.6652 43.1613C4.66948 42.2619 4.94237 41.3841 5.44925 40.6391C5.95613 39.8942 6.67417 39.3157 7.51228 38.977C8.35038 38.6383 9.2708 38.5548 10.1568 38.7369C11.0427 38.919 11.8543 39.3586 12.4886 39.9999C13.3336 40.8542 13.8046 42.0061 13.7989 43.2042C13.7932 44.4024 13.3113 45.5497 12.4582 46.3961Z" fill="#D5465F"/>
<path d="M12.547 23.6915C14.7324 21.5408 17.6865 20.3391 20.7617 20.35C23.8369 20.3609 26.7823 21.5834 28.9523 23.7495C29.3644 24.2137 29.8676 24.5892 30.4311 24.8529C30.9945 25.1166 31.6063 25.263 32.2288 25.283C32.8512 25.3031 33.4712 25.1963 34.0507 24.9694C34.6301 24.7424 35.1567 24.4 35.5981 23.9633C36.0396 23.5265 36.3865 23.0047 36.6175 22.4297C36.8485 21.8548 36.9589 21.239 36.9416 20.6201C36.9244 20.0012 36.7801 19.3924 36.5175 18.831C36.2548 18.2697 35.8795 17.7676 35.4145 17.3558C33.5036 15.4317 31.2291 13.9018 28.7217 12.854C26.2144 11.8062 23.5235 11.2612 20.8036 11.2502C18.0837 11.2392 15.3884 11.7624 12.8725 12.7898C10.3567 13.8173 8.06976 15.3287 6.14315 17.2372C5.67695 17.6456 5.29947 18.1442 5.03382 18.7026C4.76817 19.261 4.61994 19.8674 4.5982 20.4847C4.57645 21.102 4.68165 21.7172 4.90736 22.2927C5.13306 22.8682 5.47453 23.3918 5.91085 23.8316C6.34718 24.2713 6.86919 24.618 7.44493 24.8502C8.02068 25.0825 8.63805 25.1955 9.25926 25.1824C9.88047 25.1693 10.4925 25.0303 11.0578 24.774C11.6231 24.5176 12.1298 24.1493 12.547 23.6915Z" fill="#67B3FF"/>
<path d="M12.5468 23.6915C11.9067 24.327 11.0911 24.7593 10.2036 24.9334C9.31597 25.1075 8.39635 25.0156 7.56137 24.6694C6.72639 24.3232 6.01366 23.7382 5.51359 22.9888C5.01352 22.2393 4.74865 21.359 4.75258 20.4597C4.7565 19.5603 5.02904 18.6824 5.53563 17.9373C6.04222 17.1921 6.76003 16.6133 7.598 16.2743C8.43597 15.9353 9.35635 15.8514 10.2424 16.0331C11.1284 16.2149 11.9402 16.6542 12.5747 17.2952C13.4201 18.1493 13.8915 19.3009 13.8863 20.4991C13.8811 21.6972 13.3996 22.8447 12.5468 23.6915Z" fill="#47A1FF"/>
<path d="M55.7362 36.2799C57.053 35.2912 57.2281 35.8435 58.3394 36.9483C58.895 37.5006 60.4148 38.4616 59.4202 39.2737C57.3448 40.9585 55.4724 41.7152 52.8236 41.7152C46.8282 41.6874 42.5886 37.2383 42.9286 31.3364C43.0732 28.6932 44.1262 26.1912 46.2041 24.4761C48.1044 22.8771 50.4716 22.1809 52.958 22.239C54.1767 22.2354 55.384 22.472 56.5101 22.9351C57.2728 23.2088 57.9915 23.5911 58.6438 24.07C59.9606 25.0789 59.3466 25.6691 58.3216 26.6855C58.0882 26.9176 57.8548 27.1521 57.6493 27.3842C57.1241 27.9063 56.7714 28.2846 56.0712 27.7902C54.7265 26.8596 53.0266 26.3652 51.4205 26.7814C46.2447 28.0879 46.4781 37.2459 52.8261 37.2761C53.8784 37.2624 54.8985 36.9132 55.7362 36.2799ZM199.611 41.8287C199.404 41.8297 199.198 41.7898 199.006 41.7113C198.814 41.6329 198.639 41.5174 198.492 41.3716C198.345 41.2257 198.229 41.0524 198.15 40.8616C198.071 40.6708 198.03 40.4663 198.031 40.2599L198.12 19.969C198.119 19.7626 198.159 19.558 198.238 19.3671C198.317 19.1762 198.433 19.0026 198.579 18.8566C198.726 18.7105 198.9 18.5947 199.092 18.516C199.284 18.4372 199.49 18.397 199.698 18.3977H201.395C201.603 18.397 201.809 18.4373 202.001 18.5162C202.193 18.5951 202.367 18.7111 202.514 18.8575C202.661 19.0038 202.777 19.1776 202.856 19.3688C202.935 19.56 202.975 19.7649 202.973 19.9715L202.884 40.2624C202.885 40.4687 202.845 40.6731 202.766 40.8639C202.687 41.0547 202.571 41.2281 202.424 41.3739C202.278 41.5198 202.103 41.6353 201.911 41.7138C201.719 41.7923 201.514 41.8322 201.306 41.8312L199.611 41.8287ZM190.731 39.4755C188.889 41.1905 187.134 42.091 184.53 42.091C179.268 42.0607 176.752 37.7301 176.752 32.8749L176.782 24.6199C176.781 24.4136 176.822 24.2092 176.901 24.0185C176.98 23.8279 177.097 23.6547 177.244 23.5091C177.391 23.3634 177.565 23.2482 177.757 23.17C177.949 23.0918 178.155 23.0523 178.363 23.0536H180.06C180.268 23.0526 180.473 23.0925 180.665 23.171C180.857 23.2495 181.031 23.365 181.178 23.5109C181.325 23.6567 181.441 23.8301 181.52 24.0209C181.599 24.2117 181.639 24.4161 181.638 24.6224L181.61 32.8775C181.61 35.5812 183.072 37.7024 185.939 37.7024C188.806 37.7024 190.559 35.3189 190.587 32.658V29.7096C190.564 29.5951 190.554 29.4783 190.559 29.3616L190.587 24.6804C190.586 24.4741 190.626 24.2697 190.705 24.0789C190.784 23.8881 190.9 23.7148 191.047 23.5689C191.193 23.423 191.368 23.3075 191.56 23.229C191.752 23.1505 191.957 23.1106 192.165 23.1116H193.839C194.047 23.1106 194.253 23.1505 194.444 23.229C194.636 23.3075 194.811 23.423 194.957 23.5689C195.104 23.7148 195.22 23.8881 195.299 24.0789C195.378 24.2697 195.418 24.4741 195.417 24.6804L195.362 40.2624C195.358 40.6747 195.189 41.0685 194.893 41.3575C194.597 41.6464 194.198 41.8068 193.784 41.8034H192.35C191.943 41.7908 191.556 41.6244 191.268 41.3381C190.98 41.0518 190.813 40.6671 190.8 40.2624L190.731 39.4755ZM170.543 23.1116H173.819C174.026 23.1146 174.231 23.1584 174.422 23.2405C174.612 23.3226 174.785 23.4414 174.929 23.5901C175.073 23.7387 175.186 23.9143 175.262 24.1066C175.337 24.299 175.373 24.5043 175.369 24.7107V25.7851C175.365 26.1993 175.199 26.5957 174.905 26.889C174.611 27.1824 174.212 27.3493 173.796 27.3539H170.513L170.454 40.1741C170.455 40.3805 170.415 40.5851 170.336 40.776C170.257 40.967 170.141 41.1405 169.994 41.2865C169.848 41.4326 169.673 41.5484 169.481 41.6271C169.29 41.7059 169.084 41.7461 168.876 41.7454H167.181C166.974 41.7461 166.768 41.7059 166.576 41.6272C166.384 41.5484 166.209 41.4327 166.062 41.2867C165.915 41.1406 165.799 40.9672 165.72 40.7762C165.64 40.5853 165.6 40.3806 165.601 40.1741L165.659 22.4432C165.659 18.5768 167.882 15.5224 171.86 15.1743C171.977 15.1743 172.063 15.1466 172.18 15.1466C172.414 15.1315 172.648 15.1315 172.882 15.1466H174.405C174.612 15.1495 174.817 15.1933 175.007 15.2752C175.198 15.3572 175.37 15.4758 175.514 15.6242C175.658 15.7726 175.771 15.9478 175.847 16.1399C175.923 16.3319 175.959 16.5369 175.955 16.7431V17.7318C175.952 18.1473 175.785 18.5451 175.49 18.8391C175.195 19.1331 174.795 19.2998 174.377 19.3031H173.149C171.276 19.3031 170.487 20.7256 170.457 22.471L170.543 23.1116ZM158.788 23.0536H162.378C162.793 23.0576 163.189 23.2251 163.48 23.5192C163.771 23.8133 163.932 24.2101 163.929 24.6224V25.6968C163.925 26.1091 163.756 26.503 163.46 26.7919C163.164 27.0809 162.765 27.2413 162.351 27.2379H158.758L158.73 35.0819C158.73 36.5952 159.461 37.4653 160.98 37.4653H161.711C162.126 37.47 162.522 37.638 162.813 37.9325C163.104 38.227 163.265 38.6241 163.261 39.0366V40.1262C163.257 40.5383 163.088 40.9317 162.792 41.2205C162.497 41.5093 162.098 41.6699 161.683 41.6672H160.308C160.054 41.6723 159.8 41.6622 159.547 41.637C155.658 41.3848 153.932 38.8777 153.932 35.097C153.963 30.0098 153.963 24.9528 153.991 19.8656C153.993 19.6612 154.035 19.4593 154.116 19.2712C154.196 19.0832 154.313 18.9127 154.46 18.7696C154.607 18.6265 154.78 18.5136 154.971 18.4372C155.162 18.3608 155.366 18.3225 155.571 18.3245H157.238C157.653 18.3285 158.049 18.496 158.34 18.7901C158.63 19.0843 158.792 19.481 158.788 19.8933V23.0536ZM106.776 22.8493H110.367C110.781 22.8533 111.177 23.0208 111.468 23.3149C111.759 23.609 111.92 24.0058 111.917 24.4181V25.4976C111.912 25.9097 111.743 26.3031 111.448 26.5919C111.152 26.8807 110.753 27.0413 110.339 27.0386H106.736V34.8851C106.736 36.3984 107.467 37.2686 108.986 37.2686H109.72C109.925 37.2705 110.128 37.3127 110.317 37.3926C110.505 37.4725 110.677 37.5886 110.82 37.7343C110.964 37.88 111.077 38.0524 111.154 38.2416C111.231 38.4309 111.269 38.6333 111.267 38.8374V39.9118C111.263 40.3241 111.095 40.718 110.799 41.0069C110.503 41.2958 110.104 41.4562 109.689 41.4529H108.608C104.366 41.4251 101.91 39.6218 101.91 34.8952C101.941 29.808 101.941 24.7485 101.969 19.6613C101.973 19.2488 102.142 18.8549 102.438 18.5661C102.735 18.2772 103.134 18.1169 103.549 18.1202H105.216C105.631 18.1249 106.027 18.293 106.317 18.5876C106.607 18.8822 106.768 19.2793 106.764 19.6916L106.776 22.8493ZM85.6647 25.0587C87.39 23.4597 89.2624 22.4432 91.6879 22.4432C96.9525 22.471 99.6724 26.7309 99.6419 31.6567L99.614 39.9118C99.6147 40.1183 99.5743 40.323 99.4951 40.5139C99.4159 40.7049 99.2995 40.8783 99.1526 41.0244C99.0056 41.1704 98.8311 41.2861 98.6391 41.3649C98.447 41.4436 98.2411 41.4838 98.0334 41.4831H96.3385C96.1308 41.4838 95.9249 41.4436 95.7329 41.3649C95.5408 41.2861 95.3663 41.1704 95.2194 41.0244C95.0724 40.8783 94.956 40.7049 94.8768 40.5139C94.7976 40.323 94.7572 40.1183 94.7579 39.9118L94.7883 31.7148C94.7883 29.011 93.3269 26.8898 90.4599 26.8898C87.5929 26.8898 85.8397 29.2455 85.8118 31.919L85.7814 39.9118C85.7774 40.3241 85.6089 40.718 85.313 41.0069C85.0172 41.2958 84.618 41.4562 84.2033 41.4529H82.5364C82.1216 41.4489 81.7254 41.2814 81.4348 40.9873C81.1441 40.6931 80.9828 40.2964 80.9861 39.8841C81.0141 34.9129 81.014 29.9139 81.0445 24.9427V24.2743C81.0458 23.8625 81.2114 23.468 81.5048 23.1772C81.7982 22.8865 82.1956 22.7232 82.6099 22.7232H84.0434C84.4507 22.7352 84.838 22.9015 85.1262 23.1879C85.4143 23.4743 85.5815 23.8594 85.5936 24.2643L85.6647 25.0587ZM137.776 25.2605C139.501 23.664 141.371 22.645 143.799 22.645C149.063 22.6753 151.781 26.9478 151.753 31.861L151.722 40.1262C151.723 40.3326 151.683 40.5372 151.604 40.7281C151.525 40.919 151.409 41.0925 151.263 41.2386C151.116 41.3847 150.941 41.5004 150.75 41.5792C150.558 41.658 150.352 41.6982 150.144 41.6975H148.449C148.242 41.6982 148.036 41.658 147.844 41.5793C147.652 41.5005 147.477 41.3848 147.33 41.2388C147.183 41.0927 147.067 40.9192 146.988 40.7283C146.909 40.5374 146.868 40.3327 146.869 40.1262L146.899 31.9291C146.899 29.2254 145.435 27.1042 142.571 27.1042C139.706 27.1042 137.951 29.4574 137.92 32.1334L137.88 40.1262C137.875 40.5387 137.706 40.9326 137.41 41.2214C137.113 41.5103 136.714 41.6706 136.299 41.6672H134.632C134.218 41.6626 133.822 41.4948 133.532 41.2008C133.242 40.9067 133.081 40.5103 133.084 40.0984L133.143 24.4862C133.143 24.281 133.185 24.0779 133.265 23.8887C133.345 23.6995 133.461 23.5279 133.608 23.3837C133.755 23.2395 133.929 23.1257 134.121 23.0487C134.312 22.9717 134.517 22.9331 134.723 22.9351H136.157C136.566 22.9485 136.954 23.1169 137.242 23.4059C137.529 23.6948 137.695 24.0822 137.705 24.4887L137.776 25.2605ZM69.744 22.297C64.0404 22.2667 60.0063 26.3652 59.9759 32.0048C59.9479 37.7024 63.9237 41.7454 69.6856 41.7732C75.4475 41.8009 79.4816 37.7907 79.5095 32.0552C79.54 26.4535 75.4171 22.3247 69.744 22.297ZM117.087 33.9544C117.496 36.5699 120.013 37.6444 122.469 37.6746C123.7 37.6639 124.915 37.3967 126.036 36.8902C126.216 36.8173 126.392 36.733 126.561 36.638C127.147 36.3177 127.673 36.1159 128.2 36.638C128.492 36.9281 128.756 37.2207 129.048 37.4804C129.323 37.7418 129.578 38.0243 129.809 38.3254C130.598 39.3115 130.042 39.5461 129.137 40.1565C127.206 41.4352 124.691 42.0733 122.38 42.0733C116.182 42.0456 112.087 38.2901 112.087 32.0754C112.117 26.2013 116.21 22.307 122.116 22.3348C128.142 22.3651 131.562 25.8835 131.651 31.8711C131.679 33.4979 131.737 34.0225 130.042 34.0225L117.087 33.9544ZM69.744 26.6855C72.6972 26.6855 74.6559 29.2455 74.6559 32.0653C74.6559 35.0011 72.8139 37.3619 69.7135 37.3619C66.6131 37.3619 64.8015 34.9784 64.8015 32.0426C64.8015 29.1068 66.674 26.6855 69.744 26.6855ZM117.217 29.9139L126.927 29.9417C126.574 27.5279 124.557 26.5695 122.248 26.5695C119.939 26.5695 117.935 27.6465 117.217 29.9139Z" fill="#29303A"/>
</svg>
