<svg width="201" height="60" viewBox="0 0 201 60" fill="none" xmlns="http://www.w3.org/2000/svg">
<path d="M12.92 18.5624L11.2498 24.7175L20.8098 18.5273L14.5573 41.8842L20.9073 41.8895L30.1439 7.39038" fill="#3395FF"/>
<path d="M2.62993 32.0705L0 41.8898H13.015L18.3406 21.9146L2.62993 32.0705ZM47.8392 23.4255C47.5211 24.6094 46.9082 25.479 45.994 26.0343C45.0821 26.5885 43.8021 26.8667 42.1499 26.8667H36.9007L38.7437 19.9864H43.993C45.643 19.9864 46.7767 20.2625 47.3917 20.8252C48.0068 21.388 48.1553 22.248 47.8392 23.4372V23.4255ZM53.2741 23.2886C53.9422 20.804 53.6664 18.8928 52.4448 17.555C51.2253 16.2278 49.0853 15.5588 46.0312 15.5588H34.3163L27.2643 41.9014H32.9558L35.7978 31.2837H39.5306C40.3683 31.2837 41.0279 31.4217 41.5094 31.6872C41.9919 31.9632 42.275 32.441 42.362 33.1312L43.3779 41.9014H49.4755L48.4872 33.7258C48.2857 31.8995 47.4511 30.8271 45.9845 30.5086C47.8541 29.9671 49.4204 29.0646 50.6823 27.8117C51.9355 26.568 52.8308 25.0092 53.2741 23.2992V23.2886ZM67.1088 32.4729C66.6316 34.2567 65.8998 35.6051 64.9104 36.5501C63.92 37.4951 62.7365 37.9623 61.3558 37.9623C59.9496 37.9623 58.9963 37.5057 58.4926 36.582C57.9878 35.6582 57.9708 34.3204 58.4395 32.5685C58.9083 30.8165 59.6559 29.4468 60.6845 28.4594C61.7132 27.4719 62.9157 26.9782 64.2964 26.9782C65.675 26.9782 66.6188 27.456 67.096 28.4042C67.5839 29.3566 67.5945 30.7188 67.1173 32.492L67.1088 32.4729ZM69.603 23.1505L68.8903 25.8156C68.5828 24.86 67.9858 24.0955 67.1035 23.5221C66.219 22.9594 65.1246 22.6727 63.8192 22.6727C62.2179 22.6727 60.6803 23.0868 59.2063 23.915C57.7322 24.7432 56.4385 25.9111 55.3356 27.4188C54.2327 28.9266 53.4268 30.636 52.9072 32.5578C52.3981 34.4903 52.2921 36.1785 52.5996 37.6437C52.9178 39.1196 53.5858 40.2451 54.6145 41.0308C55.6537 41.8271 56.9793 42.22 58.6018 42.22C59.8911 42.2265 61.1658 41.9473 62.3346 41.4024C63.4902 40.8805 64.518 40.1123 65.3463 39.1514L64.604 41.9291H70.1077L75.1332 23.1601H69.6189L69.603 23.1505ZM94.9107 23.1505H78.9053L77.7865 27.3339H87.0994L74.7875 37.9835L73.7355 41.9121H90.2574L91.3762 37.7287H81.3973L93.898 26.9198L94.9107 23.1505ZM108.999 32.441C108.504 34.2885 107.769 35.6773 106.798 36.582C105.828 37.4951 104.653 37.9516 103.273 37.9516C100.389 37.9516 99.441 36.1148 100.425 32.441C100.913 30.6148 101.651 29.2419 102.637 28.3171C103.623 27.3891 104.819 26.9262 106.224 26.9262C107.602 26.9262 108.533 27.3859 109.013 28.3118C109.492 29.2355 109.488 30.6127 108.999 32.4389V32.441ZM112.221 23.8566C110.953 23.0666 109.336 22.6717 107.364 22.6717C105.367 22.6717 103.518 23.0645 101.817 23.8502C100.124 24.631 98.6348 25.7966 97.4696 27.2543C96.2713 28.7301 95.4091 30.4608 94.88 32.4357C94.3603 34.4032 94.2967 36.1307 94.6997 37.6098C95.1027 39.0856 95.951 40.2217 97.2236 41.0074C98.5067 41.7995 100.14 42.1934 102.144 42.1934C104.117 42.1934 105.951 41.7963 107.637 41.0064C109.323 40.2122 110.766 39.0846 111.964 37.5981C113.162 36.118 114.021 34.3915 114.551 32.4166C115.082 30.4417 115.145 28.7174 114.742 27.2352C114.339 25.7593 113.502 24.6232 112.24 23.8322L112.221 23.8566ZM131.869 28.1642L133.279 23.0571C132.802 22.8129 132.176 22.6855 131.391 22.6855C130.129 22.6855 128.921 22.9976 127.754 23.6304C126.751 24.1677 125.898 24.9258 125.177 25.875L125.909 23.125L124.311 23.1314H120.387L115.329 41.8929H120.91L123.535 32.0853C123.916 30.6594 124.603 29.5371 125.595 28.7408C126.581 27.9412 127.811 27.541 129.296 27.541C130.208 27.541 131.056 27.7501 131.862 28.1674L131.869 28.1642ZM147.398 32.5313C146.921 34.2832 146.2 35.6211 145.213 36.5448C144.227 37.4728 143.039 37.9357 141.661 37.9357C140.282 37.9357 139.338 37.4685 138.84 36.5342C138.331 35.5945 138.32 34.2407 138.798 32.4612C139.275 30.6827 140.007 29.3184 141.014 28.3734C142.021 27.421 143.209 26.9453 144.588 26.9453C145.945 26.9453 146.857 27.4337 147.345 28.4212C147.833 29.4086 147.843 30.7783 147.375 32.5302L147.398 32.5313ZM151.277 23.8874C150.243 23.0592 148.923 22.6451 147.322 22.6451C145.919 22.6451 144.581 22.9636 143.313 23.6071C142.046 24.2495 141.017 25.1254 140.227 26.2339L140.246 26.1065L141.183 23.1229H135.732L134.343 28.315L134.3 28.4955L128.574 49.8839H134.162L137.047 39.1175C137.333 40.0752 137.916 40.8269 138.807 41.3706C139.698 41.9121 140.798 42.1807 142.105 42.1807C143.728 42.1807 145.276 41.7878 146.745 41.0021C148.219 40.2143 149.491 39.0803 150.573 37.6151C151.655 36.1498 152.457 34.451 152.97 32.5292C153.489 30.6042 153.595 28.8873 153.298 27.3849C152.996 25.8803 152.327 24.7156 151.294 23.8916L151.277 23.8874ZM169.815 32.4548C169.338 34.228 168.606 35.5871 167.62 36.5214C166.634 37.4622 165.446 37.9304 164.067 37.9304C162.657 37.9304 161.702 37.4738 161.204 36.5501C160.695 35.6264 160.684 34.2885 161.151 32.5366C161.618 30.7847 162.362 29.415 163.391 28.4275C164.419 27.4401 165.623 26.9474 167.004 26.9474C168.382 26.9474 169.315 27.4252 169.803 28.3702C170.291 29.3184 170.294 30.6806 169.819 32.458L169.815 32.4548ZM172.307 23.1272L171.593 25.7922C171.286 24.8313 170.692 24.0668 169.812 23.4988C168.921 22.9318 167.829 22.6494 166.524 22.6494C164.923 22.6494 163.377 23.0635 161.901 23.8916C160.427 24.7198 159.133 25.8814 158.03 27.3849C156.927 28.8883 156.121 30.602 155.602 32.5239C155.087 34.4531 154.987 36.1445 155.294 37.6161C155.605 39.0814 156.274 40.2132 157.309 41.0032C158.342 41.7889 159.674 42.186 161.296 42.186C162.601 42.186 163.847 41.9142 165.029 41.3684C166.182 40.8442 167.207 40.075 168.033 39.1143L167.291 41.894H172.795L177.819 23.1325H172.315L172.307 23.1272ZM200.925 23.1335L200.929 23.1282H197.546C197.438 23.1282 197.342 23.1335 197.244 23.1357H195.488L194.587 24.3885L194.364 24.6858L194.269 24.8345L187.137 34.7812L185.663 23.1335H179.822L182.781 40.8333L176.249 49.8902H182.071L183.651 47.6467C183.695 47.5809 183.735 47.5257 183.788 47.4556L185.634 44.833L185.687 44.7587L193.951 33.0261L200.918 23.1516L200.929 23.1452H200.925V23.1335Z" fill="black"/>
</svg>
