<svg width="1830" height="365" viewBox="0 0 1830 365" fill="none" xmlns="http://www.w3.org/2000/svg">
<rect width="1830" height="365" fill="#013228"/>
<mask id="mask0_4621_2884" style="mask-type:alpha" maskUnits="userSpaceOnUse" x="0" y="0" width="1830" height="365">
<rect width="1830" height="365" fill="#F3F7FB"/>
</mask>
<g mask="url(#mask0_4621_2884)">
<ellipse cx="915" cy="504.5" rx="1827" ry="1316.5" fill="url(#paint0_radial_4621_2884)" fill-opacity="0.1"/>
<g opacity="0.05">
<path opacity="0.1" d="M629.992 -433.51L921.017 -142.485C958.091 -105.41 978.507 -55.9614 978.507 -3.24646C978.507 49.4685 958.091 98.9213 921.017 135.992L629.992 427.017C592.917 464.092 543.469 484.507 490.754 484.507C438.039 484.507 388.586 464.092 351.515 427.017L60.4905 135.992C23.4155 98.9174 3 49.4685 3 -3.24646C3 -55.9614 23.4116 -105.41 60.4826 -142.485L351.507 -433.51C388.582 -470.584 438.031 -491 490.746 -491C543.461 -491 592.917 -470.584 629.992 -433.51ZM414.232 364.3C456.423 406.491 525.076 406.491 567.272 364.3L858.296 73.2755C900.487 31.0839 900.487 -37.569 858.296 -79.7645L567.272 -370.789C525.08 -412.98 456.427 -412.98 414.232 -370.789L123.203 -79.7645C81.0119 -37.573 81.0119 31.08 123.203 73.2755L414.232 364.3Z" fill="url(#paint1_linear_4621_2884)"/>
<path opacity="0.1" d="M1477.98 191.644L1769 482.668C1806.08 519.743 1826.49 569.192 1826.49 621.907C1826.49 674.622 1806.08 724.075 1769 761.146L1477.98 1052.17C1440.9 1089.25 1391.45 1109.66 1338.74 1109.66C1286.02 1109.66 1236.57 1089.25 1199.5 1052.17L908.475 761.146C871.4 724.071 850.984 674.622 850.984 621.907C850.984 569.192 871.4 519.74 908.475 482.668L1199.5 191.644C1236.57 154.569 1286.02 134.154 1338.74 134.154C1391.45 134.154 1440.9 154.573 1477.98 191.644ZM1262.22 989.457C1304.41 1031.65 1373.06 1031.65 1415.26 989.457L1706.28 698.433C1748.47 656.242 1748.47 587.589 1706.28 545.393L1415.25 254.365C1373.06 212.174 1304.41 212.174 1262.21 254.365L971.188 545.389C928.996 587.581 928.996 656.234 971.188 698.429L1262.22 989.457Z" fill="url(#paint2_linear_4621_2884)"/>
<path d="M305.414 695.085L162.988 552.658C144.842 534.513 134.852 510.314 134.852 484.515C134.852 458.716 144.842 434.513 162.988 416.372L305.414 273.941C323.559 255.796 347.759 245.806 373.557 245.806C399.356 245.806 423.559 255.796 441.701 273.941L584.127 416.368C602.272 434.513 612.263 458.712 612.263 484.511C612.263 510.31 602.272 534.513 584.127 552.654L441.701 695.081C423.555 713.226 399.356 723.216 373.557 723.216C347.759 723.216 323.559 713.23 305.414 695.085ZM411.009 304.637C390.358 283.986 356.761 283.986 336.11 304.637L193.683 447.064C173.033 467.714 173.033 501.311 193.683 521.962L336.11 664.389C356.761 685.04 390.358 685.04 411.009 664.389L553.435 521.962C574.086 501.311 574.086 467.714 553.435 447.064L411.009 304.637Z" fill="url(#paint3_linear_4621_2884)"/>
<path d="M1302.82 130.687L1160.39 -11.7393C1142.24 -29.8848 1132.25 -54.0838 1132.25 -79.8826C1132.25 -105.681 1142.24 -129.884 1160.39 -148.026L1302.82 -290.452C1320.96 -308.598 1345.16 -318.588 1370.96 -318.588C1396.76 -318.588 1420.96 -308.598 1439.1 -290.452L1581.53 -148.026C1599.67 -129.88 1609.66 -105.681 1609.66 -79.8826C1609.66 -54.0838 1599.67 -29.8808 1581.53 -11.7393L1439.1 130.687C1420.96 148.833 1396.76 158.823 1370.96 158.823C1345.16 158.823 1320.96 148.833 1302.82 130.687ZM1408.41 -259.764C1387.76 -280.415 1354.16 -280.415 1333.51 -259.764L1191.08 -117.334C1170.43 -96.6832 1170.43 -63.086 1191.08 -42.4352L1333.51 99.9913C1354.16 120.642 1387.76 120.642 1408.41 99.9913L1550.83 -42.4352C1571.48 -63.086 1571.48 -96.6832 1550.83 -117.334L1408.41 -259.764Z" fill="url(#paint4_linear_4621_2884)"/>
<path d="M953.575 160.023L867.902 74.3498C856.986 63.4344 850.975 48.8804 850.975 33.358C850.975 17.8356 856.986 3.28168 867.902 -7.63379L953.575 -93.3069C964.49 -104.222 979.044 -110.233 994.566 -110.233C1010.09 -110.233 1024.64 -104.218 1035.56 -93.3069L1121.23 -7.63379C1132.15 3.28168 1138.16 17.8356 1138.16 33.358C1138.16 48.8804 1132.15 63.4344 1121.23 74.3498L1035.56 160.023C1024.64 170.938 1010.09 176.949 994.566 176.949C979.044 176.949 964.49 170.938 953.575 160.023ZM1017.09 -74.84C1004.67 -87.261 984.459 -87.261 972.038 -74.84L886.364 10.8331C873.943 23.2542 873.943 43.4658 886.364 55.8869L972.038 141.56C984.459 153.981 1004.67 153.981 1017.09 141.56L1102.76 55.8869C1115.19 43.4658 1115.19 23.2542 1102.76 10.8331L1017.09 -74.84Z" fill="url(#paint5_linear_4621_2884)"/>
<path d="M1219.98 324.864L1165.78 270.66C1158.87 263.755 1155.07 254.545 1155.07 244.727C1155.07 234.91 1158.87 225.7 1165.78 218.795L1219.98 164.59C1226.88 157.686 1236.09 153.883 1245.91 153.883C1255.73 153.883 1264.94 157.686 1271.84 164.59L1326.05 218.795C1332.95 225.7 1336.76 234.91 1336.76 244.727C1336.76 254.545 1332.95 263.755 1326.05 270.66L1271.84 324.864C1264.94 331.769 1255.73 335.572 1245.91 335.572C1236.09 335.572 1226.88 331.769 1219.98 324.864ZM1260.17 176.271C1252.31 168.413 1239.52 168.413 1231.66 176.271L1177.46 230.475C1169.6 238.333 1169.6 251.122 1177.46 258.979L1231.66 313.184C1239.52 321.042 1252.31 321.042 1260.17 313.184L1314.37 258.979C1322.23 251.122 1322.23 238.333 1314.37 230.475L1260.17 176.271Z" fill="url(#paint6_linear_4621_2884)"/>
<path d="M521.728 273.855L456.416 208.546C448.002 200.132 443.367 188.911 443.367 176.949C443.367 164.986 448.002 153.765 456.416 145.351L521.724 80.0425C530.138 71.6285 541.359 66.9941 553.322 66.9941C565.284 66.9941 576.505 71.6285 584.919 80.0425L650.228 145.351C658.642 153.765 663.276 164.986 663.276 176.949C663.276 188.911 658.642 200.132 650.228 208.546L584.923 273.855C576.509 282.269 565.288 286.903 553.326 286.903C541.363 286.903 530.138 282.269 521.728 273.855ZM584.221 80.7404C575.996 72.5146 565.025 67.9861 553.326 67.9861C541.63 67.9861 530.656 72.5146 522.43 80.7404L457.121 146.053C448.896 154.279 444.367 165.249 444.367 176.949C444.367 188.644 448.896 199.619 457.121 207.844L522.43 273.153C530.656 281.379 541.626 285.907 553.326 285.907C565.021 285.907 575.996 281.379 584.221 273.153L649.53 207.844C657.756 199.619 662.284 188.648 662.284 176.949C662.284 165.253 657.756 154.279 649.53 146.053L584.221 80.7404Z" fill="url(#paint7_linear_4621_2884)"/>
<path d="M244.92 439.622L114.303 309.005C97.4752 292.177 88.2104 269.735 88.2104 245.806C88.2104 221.877 97.4792 199.435 114.303 182.607L244.92 51.9859C261.748 35.1579 284.191 25.8931 308.119 25.8931C332.048 25.8931 354.491 35.1618 371.319 51.9859L501.936 182.603C518.764 199.431 528.029 221.874 528.029 245.802C528.029 269.731 518.76 292.173 501.936 309.001L371.319 439.618C354.491 456.446 332.048 465.711 308.119 465.711C284.191 465.715 261.744 456.446 244.92 439.622ZM369.907 53.3935C353.455 36.9418 331.511 27.8809 308.116 27.8809C284.72 27.8809 262.776 36.9418 246.324 53.3935L115.707 184.014C99.2553 200.466 90.1943 222.411 90.1943 245.806C90.1943 269.201 99.2553 291.146 115.707 307.598L246.324 438.215C262.776 454.666 284.72 463.727 308.116 463.727C331.511 463.727 353.455 454.666 369.907 438.215L500.524 307.598C516.976 291.146 526.037 269.201 526.037 245.806C526.037 222.411 516.976 200.466 500.524 184.014L369.907 53.3935Z" fill="url(#paint8_linear_4621_2884)"/>
<path d="M1183.52 152.985L1063.58 33.0405C1048.12 17.5887 1039.61 -3.02289 1039.62 -24.995C1039.62 -46.9671 1048.12 -67.5747 1063.58 -83.0304L1183.52 -202.975C1198.97 -218.427 1219.58 -226.939 1241.56 -226.939C1263.53 -226.939 1284.14 -218.431 1299.59 -202.975L1419.54 -83.0304C1434.99 -67.5786 1443.5 -46.9671 1443.5 -24.995C1443.5 -3.02289 1434.99 17.5847 1419.54 33.0405L1299.59 152.985C1284.14 168.437 1263.52 176.949 1241.55 176.949C1219.58 176.949 1198.97 168.437 1183.52 152.985ZM1298.29 -201.681C1283.19 -216.788 1263.03 -225.108 1241.55 -225.108C1220.07 -225.108 1199.92 -216.788 1184.81 -201.681L1064.87 -81.7366C1049.76 -66.6298 1041.44 -46.477 1041.44 -24.995C1041.44 -3.51299 1049.76 16.6399 1064.87 31.7466L1184.81 151.691C1199.92 166.798 1220.07 175.118 1241.55 175.118C1263.03 175.118 1283.19 166.798 1298.29 151.691L1418.24 31.7466C1433.35 16.6399 1441.67 -3.51299 1441.67 -24.995C1441.67 -46.477 1433.35 -66.6298 1418.24 -81.7366L1298.29 -201.681Z" fill="url(#paint9_linear_4621_2884)" fill-opacity="0.1"/>
<path d="M368.178 849.195L204.537 685.554C183.455 664.472 171.845 636.356 171.845 606.377C171.845 576.403 183.455 548.283 204.537 527.201L368.178 363.559C389.26 342.477 417.376 330.868 447.355 330.868C477.329 330.868 505.449 342.477 526.531 363.559L690.173 527.201C711.255 548.283 722.864 576.399 722.864 606.377C722.864 636.352 711.255 664.472 690.173 685.554L526.527 849.195C505.445 870.278 477.329 881.887 447.351 881.887C417.376 881.887 389.257 870.274 368.178 849.195ZM524.763 365.324C504.151 344.712 476.659 333.361 447.351 333.361C418.043 333.361 390.55 344.712 369.939 365.324L206.297 528.965C185.685 549.577 174.335 577.07 174.335 606.377C174.335 635.685 185.685 663.178 206.297 683.789L369.939 847.431C390.55 868.043 418.043 879.393 447.351 879.393C476.659 879.393 504.151 868.043 524.763 847.431L688.405 683.789C709.016 663.178 720.367 635.685 720.367 606.377C720.367 577.07 709.016 549.577 688.405 528.965L524.763 365.324Z" fill="url(#paint10_linear_4621_2884)" fill-opacity="0.1"/>
<path d="M590.937 572.164L519.195 500.426C509.953 491.184 504.864 478.857 504.864 465.715C504.864 452.572 509.953 440.245 519.195 431.004L590.933 359.266C600.175 350.024 612.502 344.935 625.644 344.935C638.787 344.935 651.114 350.024 660.355 359.266L732.093 431.004C741.335 440.245 746.424 452.572 746.424 465.715C746.424 478.857 741.335 491.184 732.093 500.426L660.355 572.164C651.114 581.406 638.787 586.495 625.644 586.495C612.506 586.499 600.179 581.409 590.937 572.164ZM659.582 360.038C650.545 351.001 638.492 346.025 625.644 346.025C612.796 346.025 600.743 351.001 591.706 360.038L519.967 431.777C510.93 440.814 505.954 452.866 505.954 465.715C505.954 478.563 510.93 490.616 519.967 499.653L591.706 571.392C600.743 580.429 612.796 585.405 625.644 585.405C638.492 585.405 650.545 580.429 659.582 571.392L731.321 499.653C740.358 490.616 745.334 478.563 745.334 465.715C745.334 452.866 740.358 440.814 731.321 431.777L659.582 360.038Z" fill="url(#paint11_linear_4621_2884)" fill-opacity="0.1"/>
<path d="M1254.58 453.023L1094.88 293.326C1074.31 272.753 1062.98 245.312 1062.98 216.059C1062.98 186.806 1074.31 159.364 1094.88 138.792L1254.58 -20.9056C1275.15 -41.478 1302.6 -52.8091 1331.85 -52.8091C1361.1 -52.8091 1388.54 -41.478 1409.12 -20.9056L1568.81 138.792C1589.39 159.364 1600.72 186.806 1600.72 216.059C1600.72 245.312 1589.39 272.753 1568.81 293.326L1409.12 453.023C1388.54 473.596 1361.1 484.927 1331.85 484.927C1302.6 484.927 1275.15 473.596 1254.58 453.023ZM1407.39 -19.1884C1387.28 -39.302 1360.45 -50.3782 1331.85 -50.3782C1303.25 -50.3782 1276.42 -39.302 1256.3 -19.1884L1096.61 140.509C1076.49 160.623 1065.42 187.453 1065.42 216.055C1065.42 244.657 1076.49 271.487 1096.61 291.601L1256.3 451.298C1276.42 471.412 1303.25 482.488 1331.85 482.488C1360.45 482.488 1387.28 471.412 1407.39 451.298L1567.09 291.601C1587.21 271.487 1598.28 244.657 1598.28 216.055C1598.28 187.453 1587.21 160.623 1567.09 140.509L1407.39 -19.1884Z" fill="url(#paint12_linear_4621_2884)" fill-opacity="0.1"/>
</g>
</g>
<defs>
<radialGradient id="paint0_radial_4621_2884" cx="0" cy="0" r="1" gradientUnits="userSpaceOnUse" gradientTransform="translate(915 187.5) rotate(90) scale(1633.5 2266.92)">
<stop stop-color="white"/>
<stop offset="1" stop-color="white" stop-opacity="0"/>
</radialGradient>
<linearGradient id="paint1_linear_4621_2884" x1="972.687" y1="-3.2435" x2="-40.6245" y2="-3.2435" gradientUnits="userSpaceOnUse">
<stop stop-color="white"/>
<stop offset="1" stop-color="white" stop-opacity="0"/>
</linearGradient>
<linearGradient id="paint2_linear_4621_2884" x1="1820.67" y1="621.911" x2="807.359" y2="621.911" gradientUnits="userSpaceOnUse">
<stop stop-color="white"/>
<stop offset="1" stop-color="white" stop-opacity="0"/>
</linearGradient>
<linearGradient id="paint3_linear_4621_2884" x1="137.7" y1="484.512" x2="633.616" y2="484.512" gradientUnits="userSpaceOnUse">
<stop stop-color="white"/>
<stop offset="1" stop-color="white" stop-opacity="0"/>
</linearGradient>
<linearGradient id="paint4_linear_4621_2884" x1="1135.1" y1="-79.8854" x2="1631.01" y2="-79.8854" gradientUnits="userSpaceOnUse">
<stop stop-color="white"/>
<stop offset="1" stop-color="white" stop-opacity="0"/>
</linearGradient>
<linearGradient id="paint5_linear_4621_2884" x1="852.691" y1="33.3585" x2="1151" y2="33.3585" gradientUnits="userSpaceOnUse">
<stop stop-color="white"/>
<stop offset="1" stop-color="white" stop-opacity="0"/>
</linearGradient>
<linearGradient id="paint6_linear_4621_2884" x1="1156.15" y1="244.726" x2="1344.88" y2="244.726" gradientUnits="userSpaceOnUse">
<stop stop-color="white"/>
<stop offset="1" stop-color="white" stop-opacity="0"/>
</linearGradient>
<linearGradient id="paint7_linear_4621_2884" x1="489.079" y1="112.682" x2="617.585" y2="241.188" gradientUnits="userSpaceOnUse">
<stop stop-color="white"/>
<stop offset="1" stop-color="white" stop-opacity="0"/>
</linearGradient>
<linearGradient id="paint8_linear_4621_2884" x1="179.619" y1="117.285" x2="436.632" y2="374.297" gradientUnits="userSpaceOnUse">
<stop stop-color="white"/>
<stop offset="1" stop-color="white" stop-opacity="0"/>
</linearGradient>
<linearGradient id="paint9_linear_4621_2884" x1="1039.62" y1="-24.9963" x2="1443.5" y2="-24.9963" gradientUnits="userSpaceOnUse">
<stop offset="0.005618" stop-color="#0D5EF4"/>
<stop offset="1" stop-color="#0D5EF4" stop-opacity="0"/>
</linearGradient>
<linearGradient id="paint10_linear_4621_2884" x1="171.845" y1="606.376" x2="722.865" y2="606.376" gradientUnits="userSpaceOnUse">
<stop offset="0.005618" stop-color="#0D5EF4"/>
<stop offset="1" stop-color="#0D5EF4" stop-opacity="0"/>
</linearGradient>
<linearGradient id="paint11_linear_4621_2884" x1="504.864" y1="465.714" x2="746.424" y2="465.714" gradientUnits="userSpaceOnUse">
<stop offset="0.005618" stop-color="#0D5EF4"/>
<stop offset="1" stop-color="#0D5EF4" stop-opacity="0"/>
</linearGradient>
<linearGradient id="paint12_linear_4621_2884" x1="1062.98" y1="216.057" x2="1600.72" y2="216.057" gradientUnits="userSpaceOnUse">
<stop offset="0.005618" stop-color="#0D5EF4"/>
<stop offset="1" stop-color="#0D5EF4" stop-opacity="0"/>
</linearGradient>
</defs>
</svg>
