<svg width="1830" height="900" viewBox="0 0 1830 900" fill="none" xmlns="http://www.w3.org/2000/svg">
<mask id="mask0_4575_606" style="mask-type:alpha" maskUnits="userSpaceOnUse" x="0" y="0" width="1830" height="900">
<path d="M0 50C0 22.3858 22.3858 0 50 0H1780C1807.61 0 1830 22.3858 1830 50V850C1830 877.614 1807.61 900 1780 900H1000H911.5H825.5H50C22.3858 900 0 877.614 0 850V50Z" fill="#7341F1"/>
</mask>
<g mask="url(#mask0_4575_606)">
<path d="M0 0H1830V900H1000H911.5H825.5H0V0Z" fill="#013228"/>
<g opacity="0.05">
<path opacity="0.1" d="M456.992 -250.51L748.017 40.5147C785.091 77.5896 805.507 127.039 805.507 179.754C805.507 232.469 785.091 281.921 748.017 318.992L456.992 610.017C419.917 647.092 370.469 667.507 317.754 667.507C265.039 667.507 215.586 647.092 178.515 610.017L-112.51 318.992C-149.584 281.917 -170 232.469 -170 179.754C-170 127.039 -149.588 77.5896 -112.517 40.5147L178.507 -250.51C215.582 -287.584 265.031 -308 317.746 -308C370.461 -308 419.917 -287.584 456.992 -250.51ZM241.232 547.3C283.423 589.491 352.076 589.491 394.272 547.3L685.296 256.275C727.487 214.084 727.487 145.431 685.296 103.235L394.272 -187.789C352.08 -229.98 283.427 -229.98 241.232 -187.789L-49.7966 103.235C-91.9881 145.427 -91.9881 214.08 -49.7966 256.275L241.232 547.3Z" fill="url(#paint0_linear_4575_606)"/>
<path opacity="0.1" d="M1304.98 374.644L1596 665.668C1633.08 702.743 1653.49 752.192 1653.49 804.907C1653.49 857.622 1633.08 907.075 1596 944.146L1304.98 1235.17C1267.9 1272.25 1218.45 1292.66 1165.74 1292.66C1113.02 1292.66 1063.57 1272.25 1026.5 1235.17L735.475 944.146C698.4 907.071 677.984 857.622 677.984 804.907C677.984 752.192 698.4 702.739 735.475 665.668L1026.5 374.644C1063.57 337.569 1113.02 317.154 1165.74 317.154C1218.45 317.154 1267.9 337.573 1304.98 374.644ZM1089.22 1172.46C1131.41 1214.65 1200.06 1214.65 1242.26 1172.46L1533.28 881.433C1575.47 839.242 1575.47 770.589 1533.28 728.393L1242.25 437.365C1200.06 395.173 1131.41 395.173 1089.21 437.365L798.188 728.389C755.996 770.581 755.996 839.234 798.188 881.429L1089.22 1172.46Z" fill="url(#paint1_linear_4575_606)"/>
<path d="M132.414 878.085L-10.0124 735.658C-28.1578 717.513 -38.1479 693.314 -38.1479 667.515C-38.1479 641.716 -28.1578 617.513 -10.0124 599.372L132.414 456.941C150.559 438.796 174.759 428.806 200.557 428.806C226.356 428.806 250.559 438.796 268.701 456.941L411.127 599.368C429.272 617.513 439.263 641.712 439.263 667.511C439.263 693.31 429.272 717.513 411.127 735.654L268.701 878.081C250.555 896.226 226.356 906.216 200.557 906.216C174.759 906.216 150.559 896.23 132.414 878.085ZM238.009 487.637C217.358 466.986 183.761 466.986 163.11 487.637L20.6834 630.064C0.0326576 650.714 0.0326576 684.311 20.6834 704.962L163.11 847.389C183.761 868.04 217.358 868.04 238.009 847.389L380.435 704.962C401.086 684.311 401.086 650.714 380.435 630.064L238.009 487.637Z" fill="url(#paint2_linear_4575_606)"/>
<path d="M1129.82 313.687L987.389 171.261C969.243 153.115 959.253 128.916 959.253 103.117C959.253 77.3187 969.243 53.1157 987.389 34.9742L1129.82 -107.452C1147.96 -125.598 1172.16 -135.588 1197.96 -135.588C1223.76 -135.588 1247.96 -125.598 1266.1 -107.452L1408.53 34.9742C1426.67 53.1196 1436.66 77.3187 1436.66 103.117C1436.66 128.916 1426.67 153.119 1408.53 171.261L1266.1 313.687C1247.96 331.833 1223.76 341.823 1197.96 341.823C1172.16 341.823 1147.96 331.833 1129.82 313.687ZM1235.41 -76.7643C1214.76 -97.415 1181.16 -97.415 1160.51 -76.7643L1018.08 65.6661C997.43 86.3169 997.43 119.914 1018.08 140.565L1160.51 282.991C1181.16 303.642 1214.76 303.642 1235.41 282.991L1377.83 140.565C1398.48 119.914 1398.48 86.3169 1377.83 65.6661L1235.41 -76.7643Z" fill="url(#paint3_linear_4575_606)"/>
<path d="M780.575 343.023L694.902 257.35C683.986 246.434 677.975 231.88 677.975 216.358C677.975 200.835 683.986 186.281 694.902 175.366L780.575 89.6929C791.49 78.7775 806.044 72.7669 821.566 72.7669C837.089 72.7669 851.643 78.7814 862.558 89.6929L948.231 175.366C959.147 186.281 965.157 200.835 965.157 216.358C965.157 231.88 959.147 246.434 948.231 257.35L862.558 343.023C851.643 353.938 837.089 359.949 821.566 359.949C806.044 359.949 791.49 353.938 780.575 343.023ZM844.091 108.16C831.67 95.7388 811.459 95.7388 799.038 108.16L713.364 193.833C700.943 206.254 700.943 226.466 713.364 238.887L799.038 324.56C811.459 336.981 831.67 336.981 844.091 324.56L929.764 238.887C942.185 226.466 942.185 206.254 929.764 193.833L844.091 108.16Z" fill="url(#paint4_linear_4575_606)"/>
<path d="M504.877 954.03L414.048 863.201C402.478 851.631 396.106 836.199 396.106 819.743C396.106 803.288 402.478 787.856 414.048 776.285L504.877 685.456C516.447 673.886 531.879 667.515 548.335 667.515C564.786 667.515 580.223 673.886 591.793 685.456L682.622 776.285C694.192 787.856 700.563 803.288 700.563 819.743C700.563 836.199 694.192 851.631 682.622 863.201L591.793 954.03C580.223 965.6 564.79 971.972 548.335 971.972C531.883 971.976 516.451 965.604 504.877 954.03ZM572.22 705.029C559.05 691.859 537.623 691.859 524.457 705.029L433.628 795.858C420.458 809.028 420.458 830.455 433.628 843.621L524.457 934.45C537.627 947.62 559.054 947.62 572.22 934.45L663.049 843.621C676.219 830.451 676.219 809.024 663.049 795.858L572.22 705.029Z" fill="url(#paint5_linear_4575_606)"/>
<path d="M1046.98 507.864L992.775 453.659C985.871 446.755 982.068 437.545 982.068 427.727C982.068 417.91 985.871 408.7 992.775 401.795L1046.98 347.59C1053.88 340.686 1063.09 336.883 1072.91 336.883C1082.73 336.883 1091.94 340.686 1098.84 347.59L1153.05 401.795C1159.95 408.7 1163.76 417.91 1163.76 427.727C1163.76 437.545 1159.95 446.755 1153.05 453.659L1098.84 507.864C1091.94 514.769 1082.73 518.572 1072.91 518.572C1063.09 518.572 1053.88 514.769 1046.98 507.864ZM1087.17 359.27C1079.31 351.413 1066.52 351.413 1058.66 359.27L1004.46 413.475C996.602 421.333 996.602 434.122 1004.46 441.979L1058.66 496.184C1066.52 504.042 1079.31 504.042 1087.17 496.184L1141.37 441.979C1149.23 434.122 1149.23 421.333 1141.37 413.475L1087.17 359.27Z" fill="url(#paint6_linear_4575_606)"/>
<path d="M348.728 456.855L283.416 391.546C275.002 383.132 270.367 371.911 270.367 359.949C270.367 347.986 275.002 336.765 283.416 328.351L348.724 263.043C357.138 254.629 368.359 249.994 380.322 249.994C392.284 249.994 403.505 254.629 411.919 263.043L477.228 328.351C485.642 336.765 490.276 347.986 490.276 359.949C490.276 371.911 485.642 383.132 477.228 391.546L411.923 456.855C403.509 465.269 392.288 469.903 380.326 469.903C368.363 469.903 357.138 465.269 348.728 456.855ZM411.221 263.74C402.996 255.515 392.025 250.986 380.326 250.986C368.63 250.986 357.656 255.515 349.43 263.74L284.121 329.053C275.896 337.279 271.367 348.249 271.367 359.949C271.367 371.644 275.896 382.619 284.121 390.844L349.43 456.153C357.656 464.379 368.626 468.907 380.326 468.907C392.021 468.907 402.996 464.379 411.221 456.153L476.53 390.844C484.756 382.619 489.284 371.648 489.284 359.949C489.284 348.253 484.756 337.279 476.53 329.053L411.221 263.74Z" fill="url(#paint7_linear_4575_606)"/>
<path d="M71.9203 622.622L-58.6967 492.005C-75.5248 475.177 -84.7896 452.734 -84.7896 428.806C-84.7896 404.877 -75.5208 382.435 -58.6967 365.607L71.9203 234.986C88.7483 218.158 111.191 208.893 135.119 208.893C159.048 208.893 181.491 218.162 198.319 234.986L328.936 365.603C345.764 382.431 355.029 404.873 355.029 428.802C355.029 452.73 345.76 475.173 328.936 492.001L198.319 622.618C181.491 639.446 159.048 648.711 135.119 648.711C111.191 648.715 88.7444 639.446 71.9203 622.622ZM196.907 236.393C180.455 219.942 158.511 210.881 135.116 210.881C111.72 210.881 89.7756 219.942 73.324 236.393L-57.2931 367.014C-73.7447 383.466 -82.8057 405.411 -82.8057 428.806C-82.8057 452.201 -73.7447 474.146 -57.2931 490.597L73.324 621.214C89.7756 637.666 111.72 646.727 135.116 646.727C158.511 646.727 180.455 637.666 196.907 621.214L327.524 490.597C343.976 474.146 353.037 452.201 353.037 428.806C353.037 405.411 343.976 383.466 327.524 367.014L196.907 236.393Z" fill="url(#paint8_linear_4575_606)"/>
<path d="M1010.52 335.985L890.577 216.041C875.125 200.589 866.613 179.977 866.617 158.005C866.617 136.033 875.125 115.425 890.577 99.9696L1010.52 -19.9751C1025.97 -35.4269 1046.58 -43.9389 1068.56 -43.9389C1090.53 -43.9389 1111.14 -35.4308 1126.59 -19.9751L1246.54 99.9696C1261.99 115.421 1270.5 136.033 1270.5 158.005C1270.5 179.977 1261.99 200.585 1246.54 216.041L1126.59 335.985C1111.14 351.437 1090.52 359.949 1068.55 359.949C1046.58 359.949 1025.97 351.437 1010.52 335.985ZM1125.29 -18.6812C1110.19 -33.788 1090.03 -42.1079 1068.55 -42.1079C1047.07 -42.1079 1026.92 -33.788 1011.81 -18.6812L891.866 101.263C876.76 116.37 868.44 136.523 868.44 158.005C868.44 179.487 876.76 199.64 891.866 214.747L1011.81 334.691C1026.92 349.798 1047.07 358.118 1068.55 358.118C1090.03 358.118 1110.19 349.798 1125.29 334.691L1245.24 214.747C1260.35 199.64 1268.67 179.487 1268.67 158.005C1268.67 136.523 1260.35 116.37 1245.24 101.263L1125.29 -18.6812Z" fill="url(#paint9_linear_4575_606)" fill-opacity="0.1"/>
<path d="M195.178 1032.2L31.5366 868.553C10.4545 847.471 -1.15494 819.356 -1.15494 789.377C-1.15494 759.403 10.4545 731.283 31.5366 710.201L195.178 546.559C216.26 525.477 244.376 513.867 274.355 513.867C304.329 513.867 332.449 525.477 353.531 546.559L517.173 710.201C538.255 731.283 549.864 759.399 549.864 789.377C549.864 819.352 538.255 847.471 517.173 868.553L353.527 1032.2C332.445 1053.28 304.329 1064.89 274.351 1064.89C244.376 1064.89 216.257 1053.27 195.178 1032.2ZM351.763 548.323C331.151 527.712 303.659 516.361 274.351 516.361C245.043 516.361 217.55 527.712 196.939 548.323L33.297 711.965C12.6854 732.577 1.33476 760.069 1.33476 789.377C1.33476 818.685 12.6854 846.178 33.297 866.789L196.939 1030.43C217.55 1051.04 245.043 1062.39 274.351 1062.39C303.659 1062.39 331.151 1051.04 351.763 1030.43L515.405 866.789C536.016 846.178 547.367 818.685 547.367 789.377C547.367 760.069 536.016 732.577 515.405 711.965L351.763 548.323Z" fill="url(#paint10_linear_4575_606)" fill-opacity="0.1"/>
<path d="M417.937 755.164L346.195 683.426C336.953 674.184 331.864 661.857 331.864 648.715C331.864 635.572 336.953 623.245 346.195 614.004L417.933 542.266C427.175 533.024 439.502 527.935 452.644 527.935C465.787 527.935 478.114 533.024 487.355 542.266L559.093 614.004C568.335 623.245 573.424 635.572 573.424 648.715C573.424 661.857 568.335 674.184 559.093 683.426L487.355 755.164C478.114 764.406 465.787 769.495 452.644 769.495C439.506 769.499 427.179 764.409 417.937 755.164ZM486.582 543.038C477.545 534.001 465.492 529.025 452.644 529.025C439.796 529.025 427.743 534.001 418.706 543.038L346.967 614.777C337.93 623.814 332.954 635.866 332.954 648.715C332.954 661.563 337.93 673.616 346.967 682.653L418.706 754.392C427.743 763.429 439.796 768.405 452.644 768.405C465.492 768.405 477.545 763.429 486.582 754.392L558.321 682.653C567.358 673.616 572.334 661.563 572.334 648.715C572.334 635.866 567.358 623.814 558.321 614.777L486.582 543.038Z" fill="url(#paint11_linear_4575_606)" fill-opacity="0.1"/>
<path d="M1081.58 636.023L921.884 476.326C901.312 455.753 889.981 428.312 889.981 399.059C889.981 369.806 901.312 342.364 921.884 321.792L1081.58 162.094C1102.15 141.522 1129.6 130.191 1158.85 130.191C1188.1 130.191 1215.54 141.522 1236.12 162.094L1395.81 321.792C1416.39 342.364 1427.72 369.806 1427.72 399.059C1427.72 428.312 1416.39 455.753 1395.81 476.326L1236.12 636.023C1215.54 656.595 1188.1 667.927 1158.85 667.927C1129.6 667.927 1102.15 656.595 1081.58 636.023ZM1234.39 163.812C1214.28 143.698 1187.45 132.622 1158.85 132.622C1130.25 132.622 1103.42 143.698 1083.3 163.812L923.605 323.509C903.492 343.623 892.415 370.453 892.415 399.055C892.415 427.657 903.492 454.487 923.605 474.6L1083.3 634.298C1103.42 654.412 1130.25 665.488 1158.85 665.488C1187.45 665.488 1214.28 654.412 1234.39 634.298L1394.09 474.6C1414.21 454.487 1425.28 427.657 1425.28 399.055C1425.28 370.453 1414.21 343.623 1394.09 323.509L1234.39 163.812Z" fill="url(#paint12_linear_4575_606)" fill-opacity="0.1"/>
</g>
<g filter="url(#filter0_f_4575_606)">
<ellipse cx="1908.5" cy="374.5" rx="271.5" ry="146.5" fill="#1AD079"/>
</g>
<g filter="url(#filter1_f_4575_606)">
<ellipse cx="229.5" cy="955.5" rx="274.5" ry="183.5" fill="white" fill-opacity="0.25"/>
</g>
<g opacity="0.15">
<rect x="1906.25" y="140.75" width="799.5" height="800.5" rx="399.75" transform="rotate(90 1906.25 140.75)" fill="white" fill-opacity="0.16" stroke="white" stroke-width="0.5"/>
<rect x="1895.25" y="105.75" width="800.5" height="800.5" rx="400.25" transform="rotate(90 1895.25 105.75)" stroke="white" stroke-width="0.5"/>
<rect x="1881.25" y="68.75" width="801.5" height="800.5" rx="400.25" transform="rotate(90 1881.25 68.75)" fill="white" fill-opacity="0.25" stroke="white" stroke-width="0.5"/>
</g>
<g opacity="0.25">
<mask id="mask1_4575_606" style="mask-type:alpha" maskUnits="userSpaceOnUse" x="1597" y="719" width="287" height="287">
<circle cx="1740.5" cy="862.5" r="143.5" fill="#D9D9D9"/>
</mask>
<g mask="url(#mask1_4575_606)">
<rect width="5.03509" height="5.03509" transform="matrix(1 0 0 -1 1599.52 726.553)" fill="white"/>
<rect width="5.03509" height="5.03509" transform="matrix(1 0 0 -1 1599.52 776.903)" fill="white"/>
<rect width="5.03509" height="5.03509" transform="matrix(1 0 0 -1 1599.52 827.254)" fill="white"/>
<rect width="5.03509" height="5.03509" transform="matrix(1 0 0 -1 1599.52 877.605)" fill="white"/>
<rect width="5.03509" height="5.03509" transform="matrix(1 0 0 -1 1599.52 751.728)" fill="white"/>
<rect width="5.03509" height="5.03509" transform="matrix(1 0 0 -1 1599.52 802.079)" fill="white"/>
<rect width="5.03509" height="5.03509" transform="matrix(1 0 0 -1 1599.52 852.43)" fill="white"/>
<rect width="5.03509" height="5.03509" transform="matrix(1 0 0 -1 1599.52 902.781)" fill="white"/>
<rect width="5.03509" height="5.03509" transform="matrix(1 0 0 -1 1624.69 726.553)" fill="white"/>
<rect width="5.03509" height="5.03509" transform="matrix(1 0 0 -1 1624.69 776.903)" fill="white"/>
<rect width="5.03509" height="5.03509" transform="matrix(1 0 0 -1 1624.69 827.254)" fill="white"/>
<rect width="5.03509" height="5.03509" transform="matrix(1 0 0 -1 1624.69 877.605)" fill="white"/>
<rect width="5.03509" height="5.03509" transform="matrix(1 0 0 -1 1624.69 751.728)" fill="white"/>
<rect width="5.03509" height="5.03509" transform="matrix(1 0 0 -1 1624.69 802.079)" fill="white"/>
<rect width="5.03509" height="5.03509" transform="matrix(1 0 0 -1 1624.69 852.43)" fill="white"/>
<rect width="5.03509" height="5.03509" transform="matrix(1 0 0 -1 1624.69 902.781)" fill="white"/>
<rect width="5.03509" height="5.03509" transform="matrix(1 0 0 -1 1649.87 726.553)" fill="white"/>
<rect width="5.03509" height="5.03509" transform="matrix(1 0 0 -1 1649.87 776.903)" fill="white"/>
<rect width="5.03509" height="5.03509" transform="matrix(1 0 0 -1 1649.87 827.254)" fill="white"/>
<rect width="5.03509" height="5.03509" transform="matrix(1 0 0 -1 1649.87 877.605)" fill="white"/>
<rect width="5.03509" height="5.03509" transform="matrix(1 0 0 -1 1649.87 751.728)" fill="white"/>
<rect width="5.03509" height="5.03509" transform="matrix(1 0 0 -1 1649.87 802.079)" fill="white"/>
<rect width="5.03509" height="5.03509" transform="matrix(1 0 0 -1 1649.87 852.43)" fill="white"/>
<rect width="5.03509" height="5.03509" transform="matrix(1 0 0 -1 1649.87 902.781)" fill="white"/>
<rect width="5.03509" height="5.03509" transform="matrix(1 0 0 -1 1675.04 726.553)" fill="white"/>
<rect width="5.03509" height="5.03509" transform="matrix(1 0 0 -1 1675.04 776.903)" fill="white"/>
<rect width="5.03509" height="5.03509" transform="matrix(1 0 0 -1 1675.04 827.254)" fill="white"/>
<rect width="5.03509" height="5.03509" transform="matrix(1 0 0 -1 1675.04 877.605)" fill="white"/>
<rect width="5.03509" height="5.03509" transform="matrix(1 0 0 -1 1675.04 751.728)" fill="white"/>
<rect width="5.03509" height="5.03509" transform="matrix(1 0 0 -1 1675.04 802.079)" fill="white"/>
<rect width="5.03509" height="5.03509" transform="matrix(1 0 0 -1 1675.04 852.43)" fill="white"/>
<rect width="5.03509" height="5.03509" transform="matrix(1 0 0 -1 1675.04 902.781)" fill="white"/>
<rect width="5.03509" height="5.03509" transform="matrix(1 0 0 -1 1700.22 726.553)" fill="white"/>
<rect width="5.03509" height="5.03509" transform="matrix(1 0 0 -1 1700.22 776.903)" fill="white"/>
<rect width="5.03509" height="5.03509" transform="matrix(1 0 0 -1 1700.22 827.254)" fill="white"/>
<rect width="5.03509" height="5.03509" transform="matrix(1 0 0 -1 1700.22 877.605)" fill="white"/>
<rect width="5.03509" height="5.03509" transform="matrix(1 0 0 -1 1700.22 751.728)" fill="white"/>
<rect width="5.03509" height="5.03509" transform="matrix(1 0 0 -1 1700.22 802.079)" fill="white"/>
<rect width="5.03509" height="5.03509" transform="matrix(1 0 0 -1 1700.22 852.43)" fill="white"/>
<rect width="5.03509" height="5.03509" transform="matrix(1 0 0 -1 1700.22 902.781)" fill="white"/>
<rect width="5.03509" height="5.03509" transform="matrix(1 0 0 -1 1725.39 726.553)" fill="white"/>
<rect width="5.03509" height="5.03509" transform="matrix(1 0 0 -1 1725.39 776.903)" fill="white"/>
<rect width="5.03509" height="5.03509" transform="matrix(1 0 0 -1 1725.39 827.254)" fill="white"/>
<rect width="5.03509" height="5.03509" transform="matrix(1 0 0 -1 1725.39 877.605)" fill="white"/>
<rect width="5.03509" height="5.03509" transform="matrix(1 0 0 -1 1725.39 751.728)" fill="white"/>
<rect width="5.03509" height="5.03509" transform="matrix(1 0 0 -1 1725.39 802.079)" fill="white"/>
<rect width="5.03509" height="5.03509" transform="matrix(1 0 0 -1 1725.39 852.43)" fill="white"/>
<rect width="5.03509" height="5.03509" transform="matrix(1 0 0 -1 1725.39 902.781)" fill="white"/>
<rect width="5.03509" height="5.03509" transform="matrix(1 0 0 -1 1750.57 726.553)" fill="white"/>
<rect width="5.03509" height="5.03509" transform="matrix(1 0 0 -1 1750.57 776.903)" fill="white"/>
<rect width="5.03509" height="5.03509" transform="matrix(1 0 0 -1 1750.57 827.254)" fill="white"/>
<rect width="5.03509" height="5.03509" transform="matrix(1 0 0 -1 1750.57 877.605)" fill="white"/>
<rect width="5.03509" height="5.03509" transform="matrix(1 0 0 -1 1750.57 751.728)" fill="white"/>
<rect width="5.03509" height="5.03509" transform="matrix(1 0 0 -1 1750.57 802.079)" fill="white"/>
<rect width="5.03509" height="5.03509" transform="matrix(1 0 0 -1 1750.57 852.43)" fill="white"/>
<rect width="5.03509" height="5.03509" transform="matrix(1 0 0 -1 1750.57 902.781)" fill="white"/>
<rect width="5.03509" height="5.03509" transform="matrix(1 0 0 -1 1775.75 726.553)" fill="white"/>
<rect width="5.03509" height="5.03509" transform="matrix(1 0 0 -1 1775.75 776.903)" fill="white"/>
<rect width="5.03509" height="5.03509" transform="matrix(1 0 0 -1 1775.75 827.254)" fill="white"/>
<rect width="5.03509" height="5.03509" transform="matrix(1 0 0 -1 1775.75 877.605)" fill="white"/>
<rect width="5.03509" height="5.03509" transform="matrix(1 0 0 -1 1775.75 751.728)" fill="white"/>
<rect width="5.03509" height="5.03509" transform="matrix(1 0 0 -1 1775.75 802.079)" fill="white"/>
<rect width="5.03509" height="5.03509" transform="matrix(1 0 0 -1 1775.75 852.43)" fill="white"/>
<rect width="5.03509" height="5.03509" transform="matrix(1 0 0 -1 1775.75 902.781)" fill="white"/>
<rect width="5.03509" height="5.03509" transform="matrix(1 0 0 -1 1800.92 726.553)" fill="white"/>
<rect width="5.03509" height="5.03509" transform="matrix(1 0 0 -1 1800.92 776.903)" fill="white"/>
<rect width="5.03509" height="5.03509" transform="matrix(1 0 0 -1 1800.92 827.254)" fill="white"/>
<rect width="5.03509" height="5.03509" transform="matrix(1 0 0 -1 1800.92 877.605)" fill="white"/>
<rect width="5.03509" height="5.03509" transform="matrix(1 0 0 -1 1800.92 751.728)" fill="white"/>
<rect width="5.03509" height="5.03509" transform="matrix(1 0 0 -1 1800.92 802.079)" fill="white"/>
<rect width="5.03509" height="5.03509" transform="matrix(1 0 0 -1 1800.92 852.43)" fill="white"/>
<rect width="5.03509" height="5.03509" transform="matrix(1 0 0 -1 1800.92 902.781)" fill="white"/>
<rect width="5.03509" height="5.03509" transform="matrix(1 0 0 -1 1826.1 726.553)" fill="white"/>
<rect width="5.03509" height="5.03509" transform="matrix(1 0 0 -1 1826.1 776.903)" fill="white"/>
<rect width="5.03509" height="5.03509" transform="matrix(1 0 0 -1 1826.1 827.254)" fill="white"/>
<rect width="5.03509" height="5.03509" transform="matrix(1 0 0 -1 1826.1 877.605)" fill="white"/>
<rect width="5.03509" height="5.03509" transform="matrix(1 0 0 -1 1826.1 751.728)" fill="white"/>
<rect width="5.03509" height="5.03509" transform="matrix(1 0 0 -1 1826.1 802.079)" fill="white"/>
<rect width="5.03509" height="5.03509" transform="matrix(1 0 0 -1 1826.1 852.43)" fill="white"/>
<rect width="5.03509" height="5.03509" transform="matrix(1 0 0 -1 1826.1 902.781)" fill="white"/>
</g>
</g>
<circle cx="962.5" cy="639.5" r="7.5" fill="#FED91F"/>
<circle cx="855" cy="712" r="10" fill="#F16615"/>
<circle cx="950" cy="797" r="5" fill="#7341F1"/>
<path d="M76 117.625L69.375 111L67 113.375L73.625 120L67 126.625L69.375 129L76 122.375L82.625 129L85 126.625L78.375 120L85 113.375L82.625 111L76 117.625Z" fill="#FED91F"/>
<g filter="url(#filter2_f_4575_606)">
<ellipse cx="106.5" cy="143.5" rx="271.5" ry="146.5" fill="#1AD079"/>
</g>
</g>
<defs>
<filter id="filter0_f_4575_606" x="837" y="-572" width="2143" height="1893" filterUnits="userSpaceOnUse" color-interpolation-filters="sRGB">
<feFlood flood-opacity="0" result="BackgroundImageFix"/>
<feBlend mode="normal" in="SourceGraphic" in2="BackgroundImageFix" result="shape"/>
<feGaussianBlur stdDeviation="400" result="effect1_foregroundBlur_4575_606"/>
</filter>
<filter id="filter1_f_4575_606" x="-845" y="-28" width="2149" height="1967" filterUnits="userSpaceOnUse" color-interpolation-filters="sRGB">
<feFlood flood-opacity="0" result="BackgroundImageFix"/>
<feBlend mode="normal" in="SourceGraphic" in2="BackgroundImageFix" result="shape"/>
<feGaussianBlur stdDeviation="400" result="effect1_foregroundBlur_4575_606"/>
</filter>
<filter id="filter2_f_4575_606" x="-965" y="-803" width="2143" height="1893" filterUnits="userSpaceOnUse" color-interpolation-filters="sRGB">
<feFlood flood-opacity="0" result="BackgroundImageFix"/>
<feBlend mode="normal" in="SourceGraphic" in2="BackgroundImageFix" result="shape"/>
<feGaussianBlur stdDeviation="400" result="effect1_foregroundBlur_4575_606"/>
</filter>
<linearGradient id="paint0_linear_4575_606" x1="799.687" y1="179.756" x2="-213.625" y2="179.756" gradientUnits="userSpaceOnUse">
<stop stop-color="white"/>
<stop offset="1" stop-color="white" stop-opacity="0"/>
</linearGradient>
<linearGradient id="paint1_linear_4575_606" x1="1647.67" y1="804.911" x2="634.359" y2="804.911" gradientUnits="userSpaceOnUse">
<stop stop-color="white"/>
<stop offset="1" stop-color="white" stop-opacity="0"/>
</linearGradient>
<linearGradient id="paint2_linear_4575_606" x1="-35.3" y1="667.512" x2="460.616" y2="667.512" gradientUnits="userSpaceOnUse">
<stop stop-color="white"/>
<stop offset="1" stop-color="white" stop-opacity="0"/>
</linearGradient>
<linearGradient id="paint3_linear_4575_606" x1="962.098" y1="103.115" x2="1458.01" y2="103.115" gradientUnits="userSpaceOnUse">
<stop stop-color="white"/>
<stop offset="1" stop-color="white" stop-opacity="0"/>
</linearGradient>
<linearGradient id="paint4_linear_4575_606" x1="679.691" y1="216.358" x2="977.995" y2="216.358" gradientUnits="userSpaceOnUse">
<stop stop-color="white"/>
<stop offset="1" stop-color="white" stop-opacity="0"/>
</linearGradient>
<linearGradient id="paint5_linear_4575_606" x1="397.921" y1="819.744" x2="714.181" y2="819.744" gradientUnits="userSpaceOnUse">
<stop stop-color="white"/>
<stop offset="1" stop-color="white" stop-opacity="0"/>
</linearGradient>
<linearGradient id="paint6_linear_4575_606" x1="983.154" y1="427.726" x2="1171.88" y2="427.726" gradientUnits="userSpaceOnUse">
<stop stop-color="white"/>
<stop offset="1" stop-color="white" stop-opacity="0"/>
</linearGradient>
<linearGradient id="paint7_linear_4575_606" x1="316.079" y1="295.682" x2="444.585" y2="424.188" gradientUnits="userSpaceOnUse">
<stop stop-color="white"/>
<stop offset="1" stop-color="white" stop-opacity="0"/>
</linearGradient>
<linearGradient id="paint8_linear_4575_606" x1="6.61938" y1="300.285" x2="263.632" y2="557.297" gradientUnits="userSpaceOnUse">
<stop stop-color="white"/>
<stop offset="1" stop-color="white" stop-opacity="0"/>
</linearGradient>
<linearGradient id="paint9_linear_4575_606" x1="866.616" y1="158.004" x2="1270.5" y2="158.004" gradientUnits="userSpaceOnUse">
<stop offset="0.005618" stop-color="#0D5EF4"/>
<stop offset="1" stop-color="#0D5EF4" stop-opacity="0"/>
</linearGradient>
<linearGradient id="paint10_linear_4575_606" x1="-1.15538" y1="789.375" x2="549.865" y2="789.375" gradientUnits="userSpaceOnUse">
<stop offset="0.005618" stop-color="#0D5EF4"/>
<stop offset="1" stop-color="#0D5EF4" stop-opacity="0"/>
</linearGradient>
<linearGradient id="paint11_linear_4575_606" x1="331.864" y1="648.714" x2="573.424" y2="648.714" gradientUnits="userSpaceOnUse">
<stop offset="0.005618" stop-color="#0D5EF4"/>
<stop offset="1" stop-color="#0D5EF4" stop-opacity="0"/>
</linearGradient>
<linearGradient id="paint12_linear_4575_606" x1="889.98" y1="399.057" x2="1427.72" y2="399.057" gradientUnits="userSpaceOnUse">
<stop offset="0.005618" stop-color="#0D5EF4"/>
<stop offset="1" stop-color="#0D5EF4" stop-opacity="0"/>
</linearGradient>
</defs>
</svg>
