<svg id="Layer_1" data-name="Layer 1" xmlns="http://www.w3.org/2000/svg" viewBox="0 0 181.13 46.67"><defs><style>.cls-1{fill:#764c9e;}.cls-2{font-size:32px;fill:#010203;font-family:Poppins-Bold, Poppins;font-weight:700;}</style></defs><path class="cls-1" d="M28.56,8.7l-3.94,2.84A9.37,9.37,0,0,0,16.81,7.3,9.59,9.59,0,0,0,7.36,17c0,.27,0,.54,0,.8v10A14.68,14.68,0,0,1,2.74,17,14.38,14.38,0,0,1,16.92,2.43,14,14,0,0,1,28.56,8.7Z" transform="translate(-2.74 -0.5)"/><path class="cls-1" d="M31.09,17a14.57,14.57,0,0,1-.18,2.3,14.3,14.3,0,0,1-14,12.27,13.89,13.89,0,0,1-4.67-.81V25.54a9.28,9.28,0,0,0,4.56,1.2A9.52,9.52,0,0,0,26,19.3H20.7a4.55,4.55,0,0,1-3.89,2.23,4.69,4.69,0,0,1,0-9.37,4.55,4.55,0,0,1,3.94,2.31H30.88A15.07,15.07,0,0,1,31.09,17Z" transform="translate(-2.74 -0.5)"/><path class="cls-1" d="M24.57,11.46" transform="translate(-2.74 -0.5)"/><text class="cls-2" transform="translate(33.81 27.28)">GeniPilot</text></svg>