<svg width="1320" height="457" fill="none" xmlns="http://www.w3.org/2000/svg">
<path d="M0.5 427C0.5 443.292 13.7076 456.5 30 456.5H1290C1306.29 456.5 1319.5 443.292 1319.5 427V30C1319.5 13.7076 1306.29 0.5 1290 0.5H1171.84C1161.56 0.5 1152.01 5.85895 1146.66 14.6421L1114.2 67.8785C1108.66 76.9594 1098.79 82.5 1088.16 82.5H231.344C220.709 82.5 210.841 76.9594 205.304 67.8785L172.842 14.6421C167.487 5.85892 157.943 0.5 147.655 0.5H30C13.7076 0.5 0.5 13.7076 0.5 30V427Z" fill="white" stroke="#D8DDE1"/>
</svg>
