<svg width="113" height="114" viewBox="0 0 113 114" fill="none" xmlns="http://www.w3.org/2000/svg">
<g opacity="0.15">
<path d="M12.6722 36.8011L2.54512 32.7287L1.08519 36.3591L11.2122 40.4315L7.13976 50.5586L10.7702 52.0185L14.8427 41.8914L24.9697 45.964L26.4296 42.3335L16.3026 38.261L20.375 28.1341L16.7446 26.6741L12.6722 36.8011Z" fill="#013228"/>
<path d="M42.6796 24.0076L32.5526 19.9352L31.0926 23.5657L41.2197 27.6381L37.1472 37.7652L40.7776 39.2251L44.8501 29.098L54.9771 33.1705L56.4371 29.5401L46.3101 25.4676L50.3825 15.3406L46.752 13.8807L42.6796 24.0076Z" fill="#013228"/>
<path d="M72.6865 11.2122L62.5594 7.13982L61.0995 10.7703L71.2265 14.8426L67.154 24.9697L70.7845 26.4297L74.857 16.3026L84.984 20.3751L86.4439 16.7447L76.3169 12.6721L80.3893 2.54519L76.7589 1.08526L72.6865 11.2122Z" fill="#013228"/>
<path d="M25.3117 66.8758L15.1846 62.8034L13.7247 66.4338L23.8518 70.5062L19.7793 80.6333L23.4097 82.0932L27.4822 71.9662L37.6092 76.0387L39.0691 72.4082L28.9421 68.3357L33.0146 58.2088L29.3841 56.7488L25.3117 66.8758Z" fill="#013228"/>
<path d="M55.3191 54.0823L45.1921 50.0099L43.7322 53.6404L53.8592 57.7128L49.7867 67.8399L53.4172 69.2998L57.4896 59.1727L67.6167 63.2452L69.0766 59.6148L58.9496 55.5423L63.022 45.4153L59.3916 43.9554L55.3191 54.0823Z" fill="#013228"/>
<path d="M85.326 41.2869L75.1989 37.2145L73.739 40.845L83.8661 44.9174L79.7936 55.0444L83.424 56.5044L87.4965 46.3773L97.6235 50.4498L99.0834 46.8194L88.9564 42.7469L93.0288 32.6199L89.3984 31.16L85.326 41.2869Z" fill="#013228"/>
<path d="M38.1071 96.8836L27.9801 92.8112L26.5201 96.4416L36.6472 100.514L32.5747 110.641L36.2051 112.101L40.2776 101.974L50.4046 106.046L51.8646 102.416L41.7375 98.3435L45.81 88.2166L42.1795 86.7566L38.1071 96.8836Z" fill="#013228"/>
<path d="M68.1146 84.0906L57.9875 80.0182L56.5276 83.6487L66.6546 87.7211L62.5821 97.8482L66.2126 99.3081L70.2851 89.181L80.4121 93.2535L81.872 89.6231L71.745 85.5506L75.8174 75.4236L72.187 73.9637L68.1146 84.0906Z" fill="#013228"/>
<path d="M98.1209 71.2947L87.9939 67.2223L86.5339 70.8528L96.661 74.9252L92.5885 85.0523L96.2189 86.5122L100.291 76.3851L110.418 80.4576L111.878 76.8272L101.751 72.7547L105.824 62.6277L102.193 61.1678L98.1209 71.2947Z" fill="#013228"/>
</g>
</svg>
