<svg width="1808" height="1093" viewBox="0 0 1808 1093" fill="none" xmlns="http://www.w3.org/2000/svg">
<path d="M120.404 1091.34C80.9552 1046 27.764 966.028 5.95557 882.492C-26.5018 758.166 152.986 727.536 196.353 606.582V606.582C208.05 573.958 192.643 525.168 191.439 490.532C188.76 413.463 258.645 344.63 548.471 457.8C580.316 470.235 609.666 488.622 639.532 505.259C715.442 547.544 837.256 585.349 968.087 552.103C1075.02 524.93 1122.82 412.454 1165.61 310.76C1216.57 189.666 1309.92 116.547 1458.51 293.363C1508.43 352.768 1525.17 431.256 1540.08 507.403C1557.67 597.203 1597.57 677.986 1676.16 652.619C1719.94 638.486 1748.51 601.606 1751.72 555.712V555.712C1758.21 462.828 1576.98 422.79 1601.33 332.919C1604.23 322.199 1610.52 313.022 1621.15 306.207C1710.89 248.688 1863.68 477.53 1771.63 423.798C1764.04 419.373 1755.33 413.4 1745.37 405.68C1704.28 373.841 1674.55 329.329 1657.25 280.317C1601.64 122.833 1579.54 -73.0926 1810.4 31.3438" stroke="url(#paint0_linear_4620_181)" stroke-width="3"/>
<defs>
<linearGradient id="paint0_linear_4620_181" x1="3031.19" y1="-734.909" x2="-201.353" y2="1826.21" gradientUnits="userSpaceOnUse">
<stop stop-color="#D324A8"/>
<stop offset="1" stop-color="#551DFF"/>
</linearGradient>
</defs>
</svg>
