<svg width="731" height="579" viewBox="0 0 731 579" fill="none" xmlns="http://www.w3.org/2000/svg">
<path d="M66.2415 31.3246H68.287V579H66.2415V31.3246Z" fill="url(#paint0_linear_4621_2969)" fill-opacity="0.08"/>
<path d="M217.001 31.3246H218.552V578.896H217.001V31.3246Z" fill="url(#paint1_linear_4621_2969)" fill-opacity="0.08"/>
<path d="M367.755 0H369.306V578.896H367.755V0Z" fill="url(#paint2_linear_4621_2969)" fill-opacity="0.08"/>
<path d="M518.507 0H520.059V578.896H518.507V0Z" fill="url(#paint3_linear_4621_2969)" fill-opacity="0.08"/>
<path d="M672.706 0H673.729V579H672.706V0Z" fill="url(#paint4_linear_4621_2969)" fill-opacity="0.08"/>
<path d="M0 542.236H731V543.817H0V542.236Z" fill="url(#paint5_linear_4621_2969)" fill-opacity="0.08"/>
<path d="M0 434.826H731V436.408H0V434.826Z" fill="url(#paint6_linear_4621_2969)" fill-opacity="0.08"/>
<path d="M0 327.416H731V328.998H0V327.416Z" fill="url(#paint7_linear_4621_2969)" fill-opacity="0.08"/>
<path d="M0 216.485H731V218.067H0V216.485Z" fill="url(#paint8_linear_4621_2969)" fill-opacity="0.08"/>
<path d="M0 105.543H731V107.125H0V105.543Z" fill="url(#paint9_linear_4621_2969)" fill-opacity="0.08"/>
<defs>
<linearGradient id="paint0_linear_4621_2969" x1="547.548" y1="425.408" x2="243.131" y2="165.23" gradientUnits="userSpaceOnUse">
<stop stop-color="#7341F1"/>
<stop offset="0.430949" stop-color="#7341F1" stop-opacity="0.25"/>
<stop offset="1" stop-color="#7341F1"/>
</linearGradient>
<linearGradient id="paint1_linear_4621_2969" x1="547.548" y1="425.408" x2="243.131" y2="165.23" gradientUnits="userSpaceOnUse">
<stop stop-color="#7341F1"/>
<stop offset="0.430949" stop-color="#7341F1" stop-opacity="0.25"/>
<stop offset="1" stop-color="#7341F1"/>
</linearGradient>
<linearGradient id="paint2_linear_4621_2969" x1="547.548" y1="425.408" x2="243.131" y2="165.23" gradientUnits="userSpaceOnUse">
<stop stop-color="#7341F1"/>
<stop offset="0.430949" stop-color="#7341F1" stop-opacity="0.25"/>
<stop offset="1" stop-color="#7341F1"/>
</linearGradient>
<linearGradient id="paint3_linear_4621_2969" x1="547.548" y1="425.408" x2="243.131" y2="165.23" gradientUnits="userSpaceOnUse">
<stop stop-color="#7341F1"/>
<stop offset="0.430949" stop-color="#7341F1" stop-opacity="0.25"/>
<stop offset="1" stop-color="#7341F1"/>
</linearGradient>
<linearGradient id="paint4_linear_4621_2969" x1="547.548" y1="425.408" x2="243.131" y2="165.23" gradientUnits="userSpaceOnUse">
<stop stop-color="#7341F1"/>
<stop offset="0.430949" stop-color="#7341F1" stop-opacity="0.25"/>
<stop offset="1" stop-color="#7341F1"/>
</linearGradient>
<linearGradient id="paint5_linear_4621_2969" x1="547.548" y1="425.408" x2="243.131" y2="165.23" gradientUnits="userSpaceOnUse">
<stop stop-color="#7341F1"/>
<stop offset="0.430949" stop-color="#7341F1" stop-opacity="0.25"/>
<stop offset="1" stop-color="#7341F1"/>
</linearGradient>
<linearGradient id="paint6_linear_4621_2969" x1="547.548" y1="425.408" x2="243.131" y2="165.23" gradientUnits="userSpaceOnUse">
<stop stop-color="#7341F1"/>
<stop offset="0.430949" stop-color="#7341F1" stop-opacity="0.25"/>
<stop offset="1" stop-color="#7341F1"/>
</linearGradient>
<linearGradient id="paint7_linear_4621_2969" x1="547.548" y1="425.408" x2="243.131" y2="165.23" gradientUnits="userSpaceOnUse">
<stop stop-color="#7341F1"/>
<stop offset="0.430949" stop-color="#7341F1" stop-opacity="0.25"/>
<stop offset="1" stop-color="#7341F1"/>
</linearGradient>
<linearGradient id="paint8_linear_4621_2969" x1="547.548" y1="425.408" x2="243.131" y2="165.23" gradientUnits="userSpaceOnUse">
<stop stop-color="#7341F1"/>
<stop offset="0.430949" stop-color="#7341F1" stop-opacity="0.25"/>
<stop offset="1" stop-color="#7341F1"/>
</linearGradient>
<linearGradient id="paint9_linear_4621_2969" x1="547.548" y1="425.408" x2="243.131" y2="165.23" gradientUnits="userSpaceOnUse">
<stop stop-color="#7341F1"/>
<stop offset="0.430949" stop-color="#7341F1" stop-opacity="0.25"/>
<stop offset="1" stop-color="#7341F1"/>
</linearGradient>
</defs>
</svg>
