<svg width="576" height="698" viewBox="0 0 576 698" fill="none" xmlns="http://www.w3.org/2000/svg">
<g opacity="0.15">
<path d="M217.204 669.192L74.7772 526.765C56.6318 508.62 46.6416 484.421 46.6416 458.622C46.6416 432.823 56.6318 408.62 74.7772 390.479L217.204 248.048C235.349 229.903 259.548 219.913 285.347 219.913C311.146 219.913 335.349 229.903 353.49 248.048L495.917 390.475C514.062 408.62 524.052 432.819 524.052 458.618C524.052 484.417 514.062 508.62 495.917 526.761L353.49 669.188C335.345 687.333 311.146 697.323 285.347 697.323C259.548 697.323 235.349 687.337 217.204 669.192ZM322.798 278.744C302.147 258.093 268.55 258.093 247.899 278.744L105.473 421.17C84.8222 441.821 84.8222 475.418 105.473 496.069L247.899 638.496C268.55 659.146 302.147 659.146 322.798 638.496L465.225 496.069C485.875 475.418 485.875 441.821 465.225 421.17L322.798 278.744Z" fill="url(#paint0_linear_4643_75)"/>
<path d="M433.518 247.962L368.205 182.653C359.791 174.239 355.157 163.018 355.157 151.056C355.157 139.093 359.791 127.872 368.205 119.458L433.514 54.1494C441.928 45.7354 453.149 41.1011 465.111 41.1011C477.074 41.1011 488.295 45.7354 496.709 54.1494L562.017 119.458C570.431 127.872 575.066 139.093 575.066 151.056C575.066 163.018 570.431 174.239 562.017 182.653L496.713 247.962C488.299 256.376 477.077 261.01 465.115 261.01C453.153 261.01 441.928 256.376 433.518 247.962ZM496.011 54.8473C487.785 46.6215 476.815 42.093 465.115 42.093C453.419 42.093 442.445 46.6215 434.219 54.8473L368.911 120.16C360.685 128.386 356.157 139.356 356.157 151.056C356.157 162.751 360.685 173.726 368.911 181.951L434.219 247.26C442.445 255.486 453.416 260.014 465.115 260.014C476.811 260.014 487.785 255.486 496.011 247.26L561.319 181.951C569.545 173.726 574.074 162.755 574.074 151.056C574.074 139.36 569.545 128.386 561.319 120.16L496.011 54.8473Z" fill="url(#paint1_linear_4643_75)"/>
<path d="M156.71 413.729L26.0928 283.112C9.26481 266.284 0 243.842 0 219.913C0 195.984 9.26873 173.542 26.0928 156.714L156.71 26.0928C173.538 9.26481 195.98 0 219.909 0C243.838 0 266.28 9.26873 283.108 26.0928L413.725 156.71C430.553 173.538 439.818 195.98 439.818 219.909C439.818 243.838 430.549 266.28 413.725 283.108L283.108 413.725C266.28 430.553 243.838 439.818 219.909 439.818C195.98 439.822 173.534 430.553 156.71 413.729ZM281.697 27.5004C265.245 11.0488 243.3 1.98784 219.905 1.98784C196.51 1.98784 174.565 11.0488 158.114 27.5004L27.4965 158.121C11.0448 174.573 1.98392 196.518 1.98392 219.913C1.98392 243.308 11.0448 265.253 27.4965 281.705L158.114 412.322C174.565 428.773 196.51 437.834 219.905 437.834C243.3 437.834 265.245 428.773 281.697 412.322L412.314 281.705C428.765 265.253 437.826 243.308 437.826 219.913C437.826 196.518 428.765 174.573 412.314 158.121L281.697 27.5004Z" fill="url(#paint2_linear_4643_75)"/>
</g>
<defs>
<linearGradient id="paint0_linear_4643_75" x1="49.4896" y1="458.619" x2="545.406" y2="458.619" gradientUnits="userSpaceOnUse">
<stop stop-color="#1A1A2E"/>
<stop offset="1" stop-color="#1A1A2E" stop-opacity="0"/>
</linearGradient>
<linearGradient id="paint1_linear_4643_75" x1="400.868" y1="86.7885" x2="529.374" y2="215.295" gradientUnits="userSpaceOnUse">
<stop stop-color="#1A1A2E"/>
<stop offset="1" stop-color="#1A1A2E" stop-opacity="0"/>
</linearGradient>
<linearGradient id="paint2_linear_4643_75" x1="91.409" y1="91.392" x2="348.421" y2="348.404" gradientUnits="userSpaceOnUse">
<stop stop-color="#1A1A2E"/>
<stop offset="1" stop-color="#1A1A2E" stop-opacity="0"/>
</linearGradient>
</defs>
</svg>
